<?xml version="1.0" encoding="utf-8"?>
<!-- Generator: Adobe Illustrator 24.3.0, SVG Export Plug-In . SVG Version: 6.00 Build 0)  -->
<svg version="1.1" id="Layer_1" xmlns="http://www.w3.org/2000/svg" xmlns:xlink="http://www.w3.org/1999/xlink" x="0px" y="0px"
	 viewBox="0 0 240.391 226.414" enable-background="new 0 0 240.391 226.414" xml:space="preserve">
<defs>
	<script  language="JavaScript"></script>
</defs>
<script  type="text/JavaScript">
	<![CDATA[
function notify( ref, type ) {
    var event = document.createEvent("CustomEvent");
    event.initEvent(type,true,true);
    ref.dispatchEvent(event);
}

		
		
		
		
		
		
		
		
		
		
		
		]]>
</script>
<g>
	<g>
		<g>
			<path fill="#EA8E10" d="M168.026,16.669c-13.312-2.005-30.541-3.215-49.379-3.215c-17.388,0-33.399,1.03-46.229,2.765V40.46
				H36.65v93.13H203.79V40.91h-35.765V16.669L168.026,16.669z"/>
		</g>
		<path fill="#231F20" d="M168.026,47.872V16.768c18.291,3.174,30.136,8.172,30.136,13.814c3.104,0,5.629,2.596,5.629,5.802v11.488
			H168.026z"/>
		<path fill="#231F20" d="M72.415,47.374V16.269C54.124,19.444,42.28,24.442,42.28,30.084c-3.105,0-5.632,2.594-5.632,5.801v11.488
			L72.415,47.374L72.415,47.374z"/>
	</g>
	<path fill="#F5A909" d="M213.098,132.777c-4.225-4.224-12.777-4.512-19.145-8.106c-25.554-14.445-43.263-19.029-73.162-19.029
		c-0.188,0-0.381,0.002-0.568,0.004c-0.188-0.001-0.385-0.004-0.569-0.004c-29.899,0-47.606,4.584-73.161,19.029
		c-6.367,3.597-14.923,3.886-19.146,8.106c-12.045,12.046-4.393,37.98-4.393,37.98c0,0.695,0.555,1.248,1.241,1.248h96.024h96.027
		c0.688,0,1.244-0.553,1.244-1.248C217.49,170.756,225.145,144.823,213.098,132.777z"/>
	<path fill="#F5A909" d="M143.329,14.193c0-2.861-9.302-9.327-23.238-9.327c-13.922,0-22.979,6.466-22.979,9.327"/>
	<path fill="#231F20" d="M216.016,172.004h-18.505h-39.844h-75.73H42.691H24.429c-0.729,0-1.311,0.83-1.311,1.861l3.521,8.496
		c0,1.078,0.562,1.967,1.252,1.967h13.404v26.131c0,0.854,0.625,1.549,1.395,1.549h39.246c0.768,0,1.393-0.694,1.393-1.549v-16.332
		h72.936v16.332c0,0.854,0.619,1.549,1.404,1.549h39.844c0.779,0,1.398-0.694,1.398-1.549v-26.131h13.629
		c0.699,0,1.266-0.889,1.266-1.967l3.518-8.496C217.321,172.835,216.729,172.004,216.016,172.004z"/>
	<path fill="#12100B" stroke="#4D4947" stroke-width="6" d="M162.682,155.443c0,3.901-3.162,7.063-7.063,7.063H84.823
		c-3.902,0-7.064-3.162-7.064-7.063v-26.56c0-3.907,3.162-7.069,7.064-7.069h70.795c3.901,0,7.063,3.162,7.063,7.069V155.443
		L162.682,155.443z"/>
	<path fill="#D0D0D0" stroke="#231F20" stroke-width="4" d="M213.374,147.778c0,8.426-6.817,15.258-15.256,15.258
		c-8.41,0-15.248-6.83-15.248-15.258c0-8.424,6.838-15.255,15.248-15.255C206.557,132.524,213.374,139.354,213.374,147.778z"/>
	<path fill="#FFFFFF" stroke="#231F20" stroke-width="2" d="M207.565,147.778c0,5.217-4.222,9.443-9.442,9.443
		c-5.207,0-9.439-4.229-9.439-9.443c0-5.214,4.232-9.441,9.439-9.441C203.343,138.336,207.565,142.564,207.565,147.778z"/>
	<path fill="#D0D0D0" stroke="#231F20" stroke-width="4" d="M57.571,147.778c0,8.426-6.817,15.258-15.259,15.258
		c-8.409,0-15.248-6.83-15.248-15.258c0-8.424,6.839-15.255,15.248-15.255C50.751,132.524,57.571,139.354,57.571,147.778z"/>
	<path fill="#FFFFFF" stroke="#231F20" stroke-width="2" d="M51.757,147.778c0,5.217-4.221,9.443-9.443,9.443
		c-5.207,0-9.438-4.229-9.438-9.443c0-5.214,4.23-9.441,9.438-9.441C47.538,138.336,51.757,142.564,51.757,147.778z"/>
	<line fill="none" stroke="#4D4947" stroke-width="5" x1="79.828" y1="138.493" x2="160.614" y2="138.493"/>
	<line fill="none" stroke="#4D4947" stroke-width="5" x1="79.828" y1="130.113" x2="160.614" y2="130.113"/>
	<line fill="none" stroke="#4D4947" stroke-width="5" x1="79.828" y1="146.874" x2="160.614" y2="146.874"/>
	<line fill="none" stroke="#4D4947" stroke-width="5" x1="79.828" y1="155.254" x2="160.614" y2="155.254"/>
	<g>
		<path fill="#FFFFFF" d="M115.517,91.793c0,0.688-0.555,1.249-1.244,1.249H43.56c-0.688,0-1.246-0.562-1.246-1.249V57.367
			c0-0.688,0.56-1.25,1.246-1.25h70.713c0.689,0,1.244,0.562,1.244,1.25V91.793z"/>
		<path fill="#FFFFFF" d="M198.12,91.793c0,0.688-0.556,1.249-1.242,1.249h-70.701c-0.692,0-1.264-0.562-1.264-1.249V57.367
			c0-0.688,0.567-1.25,1.264-1.25h70.701c0.688,0,1.242,0.562,1.242,1.25V91.793z"/>
	</g>
	<path fill="none" stroke="#13110C" stroke-width="6" d="M185.608,93.131c0-9.027-9.754-15.581-18.487-15.581
		c-8.732,0-18.476,6.668-18.476,15.581"/>
	<g>
		<path fill="#231F20" d="M28.247,86.558c0,0.682-0.549,1.243-1.236,1.243H10.199c-0.684,0-1.248-0.562-1.248-1.243V62.517
			c0-0.689,0.564-1.243,1.248-1.243h16.811c0.689,0,1.236,0.554,1.236,1.243V86.558z"/>
		<path fill="none" stroke="#13110C" stroke-width="6" d="M18.601,87.801c0,5.763,7.994,10.417,17.886,10.417"/>
	</g>
	<g>
		<path fill="#231F20" d="M212.143,86.558c0,0.682,0.565,1.243,1.241,1.243h16.812c0.677,0,1.242-0.562,1.242-1.243V62.517
			c0-0.689-0.565-1.243-1.242-1.243h-16.812c-0.676,0-1.241,0.554-1.241,1.243V86.558z"/>
		<path fill="none" stroke="#13110C" stroke-width="6" d="M221.794,87.801c0,5.763-7.994,10.417-17.883,10.417"/>
	</g>
	<path fill="#E30613" stroke="#DD1215" stroke-width="0.2339" d="M173.449,34.682c0,5.866,4.735,10.608,10.596,10.608
		c5.854,0,10.603-4.742,10.603-10.608c0-5.839-4.748-10.596-10.603-10.596C178.186,24.086,173.449,28.843,173.449,34.682z"/>
	<path fill="#E30613" stroke="#DD1215" stroke-width="0.2339" d="M44.56,34.682c0,5.866,4.744,10.608,10.584,10.608
		c5.863,0,10.613-4.742,10.613-10.608c0-5.839-4.75-10.596-10.613-10.596C49.304,24.086,44.56,28.843,44.56,34.682z"/>
</g>
<rect x="77.134" y="20.219" fill="none" width="86.47" height="24.706"/>
<text transform="matrix(1 0 0 1 78.4805 34.4191)" font-family="'MyriadPro-Regular'" font-size="20px">CRN - BUS</text>
<g>
	<g>
		<path d="M157.712,58.47c-5.699,1.629-4.834,8.16-0.74,11.176c4.924,3.627,13.578,4.755,19.02,1.651
			c5.042-2.875,4.408-9.74,0.161-13.033c-4.997-3.875-14.431-3.07-19.381,0.467c-1.545,1.104-0.061,3.687,1.502,2.57
			c2.599-1.857,6.739-2.539,9.884-2.532c3.935,0.009,12.076,4.028,7.4,9.209c-2.344,2.598-8.034,2.27-11.087,1.633
			c-1.294-0.27-2.539-0.686-3.732-1.252c-0.933-0.362-1.785-0.868-2.557-1.516c-1.941-1.493-1.833-3.328,0.322-5.504
			C160.342,60.815,159.56,57.942,157.712,58.47L157.712,58.47z"/>
	</g>
</g>
<g>
	<g>
		<path d="M163.414,63.679c1.915,0,1.918-2.977,0-2.977C161.499,60.703,161.496,63.679,163.414,63.679L163.414,63.679z"/>
	</g>
</g>
<g>
	<g>
		<path d="M172.414,64.385c1.915,0,1.918-2.977,0-2.977C170.499,61.409,170.496,64.385,172.414,64.385L172.414,64.385z"/>
	</g>
</g>
<g>
	<g>
		<path d="M164.766,67.119c1.507,0.824,3.189,1.227,4.906,1.085c0.801-0.066,1.488-0.637,1.488-1.488
			c0-0.754-0.683-1.555-1.488-1.488c-1.212,0.1-2.332-0.092-3.404-0.678C164.587,63.629,163.083,66.198,164.766,67.119
			L164.766,67.119z"/>
	</g>
</g>
<g>
	<g>
		<path d="M164.402,71.449c0.445,6.732,0.646,13.467,0.605,20.214c-0.012,1.916,2.965,1.918,2.977,0
			c0.041-6.747-0.16-13.482-0.605-20.214C167.253,69.548,164.276,69.534,164.402,71.449L164.402,71.449z"/>
	</g>
</g>
<g>
	<g>
		<path d="M164.695,73.196c-3.466,1.221-6.978,1.023-10.587,1.194c-3.081,0.146-3.597,1.677-4.034,4.593
			c-0.281,1.874,2.587,2.682,2.87,0.791c0.26-1.737,0.347-2.131,2.096-2.432c1.184-0.203,2.529-0.026,3.733-0.086
			c2.305-0.114,4.53-0.421,6.713-1.19C167.281,75.434,166.508,72.557,164.695,73.196L164.695,73.196z"/>
	</g>
</g>
<g>
	<g>
		<path d="M166.073,75.305c4.25,0.461,8.491,0.435,12.74,0.752c2.281,0.17,3.465,0.711,5.034,2.295
			c0.64,0.646,0.922,0.367,0.944,1.07c0.016,0.512-1.524,2.558-1.718,2.866c-1.024,1.626,1.551,3.121,2.57,1.502
			c3.31-5.257,2.632-6.108-1.974-9.723c-1.82-1.429-4.112-0.964-6.359-1.002c-3.759-0.063-7.501-0.331-11.238-0.737
			C164.171,72.123,164.186,75.101,166.073,75.305L166.073,75.305z"/>
	</g>
</g>
</svg>
