<?xml version="1.0" encoding="utf-8"?>
<!-- Generator: Adobe Illustrator 24.3.0, SVG Export Plug-In . SVG Version: 6.00 Build 0)  -->
<svg version="1.1" id="Layer_1" xmlns="http://www.w3.org/2000/svg" xmlns:xlink="http://www.w3.org/1999/xlink" x="0px" y="0px"
	 viewBox="0 0 595.276 841.89" enable-background="new 0 0 595.276 841.89" xml:space="preserve">
<g>
	<g>
		<g>
			<polyline fill-rule="evenodd" clip-rule="evenodd" fill="#A9AA36" points="195.887,467.199 216.949,466.699 256.479,469.113 
				352.203,468.287 389.597,472.883 393.946,462.886 387.75,437.918 216.504,437.918 			"/>
			<path fill="#FAED25" d="M268.554,450.351c0,0-1.218-27.752-78.521-21.483l5.475,25.958c0,0-6.694,8.952-1.825,12.533l23.267-0.66
				c-0.285-1.362-0.438-2.775-0.438-4.225c0-11.341,9.194-20.534,20.536-20.534c11.341,0,20.535,9.193,20.535,20.534
				c0,2.326-0.392,4.556-1.104,6.639l95.724-0.825c-0.545-1.844-0.842-3.792-0.842-5.814c0-11.341,9.193-20.534,20.537-20.534
				c11.34,0,20.533,9.193,20.533,20.534c0,3.8-1.035,7.356-2.834,10.409l5.566,0.742l-1.218-10.739l-0.608-8.954l6.088-18.8
				c0,0,9.13-4.476,9.13-14.323C408.555,420.809,319.684,417.23,268.554,450.351z"/>
			<path fill="#F7B132" stroke="#015A80" d="M187.491,435.381c0,1.089,1.55,1.973,3.462,1.973c1.91,0,3.461-0.884,3.461-1.973
				c0-1.088-1.551-1.97-3.461-1.97C189.041,433.411,187.491,434.293,187.491,435.381z"/>
			<path fill="#F7B132" stroke="#015A80" d="M188.505,438.734c0,1.088,1.549,1.972,3.461,1.972c1.911,0,3.462-0.884,3.462-1.972
				c0-1.087-1.551-1.971-3.462-1.971C190.053,436.763,188.505,437.647,188.505,438.734z"/>
			<path fill="#F7B132" stroke="#015A80" d="M189.516,441.902c0,1.089,1.551,1.97,3.463,1.97c1.911,0,3.461-0.881,3.461-1.97
				s-1.55-1.97-3.461-1.97C191.067,439.932,189.516,440.813,189.516,441.902z"/>
			<path fill="#FFFFFF" d="M258.47,467.199h88.77c0,0-7.518-7.369,0.358-11.054c0,0-9.667-1.055-6.803,6.843L258.47,467.199z"/>
			<path fill="#FAED25" d="M341.597,425.283l-6.694-24.166l8.781,0.769c0,0-61.738-41.054-122.002,29.665l28.609,7.162
				c0,0-7.913-39.388,79.133-37.596L341.597,425.283z"/>
			<path fill="#FFFFFF" d="M400.448,423.993c0,0-71.399-4.363-131.129,28.503c0,0,60.521-28.503,125.392-26.761L400.448,423.993z"/>
			<path fill="#FFFFFF" d="M267.541,451.914c0,0-0.992-18.907-45.096-21.812C222.445,430.102,258.047,433.882,267.541,451.914z"/>
			<path fill="#A9AA36" d="M335.164,462.097c0,0-0.742-0.896,0.246-5.369l-79.941,5.817L335.164,462.097z"/>
			<path fill="#A9AA36" d="M239.943,422.155c0,3.212,1.773,5.815,3.956,5.815c2.186,0,3.961-2.603,3.961-5.815
				c0-3.216-1.775-5.822-3.961-5.822C241.716,416.332,239.943,418.939,239.943,422.155z"/>
			<polyline fill="#A9AA36" points="333.956,426.758 326.887,420.815 328.705,414.576 320.826,427.945 325.875,423.192 
				332.543,427.349 			"/>
			<path fill="#A9AA36" d="M295.086,431.416l-1.732-13.572c1.214-2.081,4.848-0.594,4.848-0.594l3.584,13.47l15.203-1.587h0.402
				c-25.047,4.454-48.48,19.607-48.48,19.607c-2.22-10.994-11.716-13.369-11.716-13.369L295.086,431.416z"/>
			<path fill="#A9AA36" d="M219.218,429.133c0,0-6.263-18.718-13.737-23.471c0,0,9.495,10.991,12.122,23.471H219.218z"/>
			<path fill="#A9AA36" d="M204.673,405.662c0,0.986,0.542,1.78,1.213,1.78c0.668,0,1.211-0.794,1.211-1.78
				c0-0.983-0.543-1.781-1.211-1.781C205.215,403.881,204.673,404.679,204.673,405.662z"/>
			<path fill="#A9AA36" d="M397.416,435.001c0,0-10.822-2.395-45.259,2.396c0,0,41.768-2.222,41.188,0.345
				c-0.584,2.566-16.389,2.311-16.389,2.311s16.038,0.597,14.758,3.336c-1.278,2.737-6.708,2.102-6.708,2.102l7.523,3.886
				c0,0,3.828-8.935,4.888-14.03"/>
			<path fill="#A9AA36" d="M194.215,432.257c0,0,25.616-5.566,51.814,9.415c0,0-32.311-1.926-48.903,7.491
				c0,0,8.587-9.415,31.437-10.272c0,0-15.718-4.067-32.164,1.284c0,0,1.892-4.496,25.033-4.923
				C221.431,435.252,205.276,430.758,194.215,432.257z"/>
			<path fill="#A9AA36" d="M336.945,399.615c0,0-69.152-5.262-82.264,21.041C254.681,420.656,259.787,391.35,336.945,399.615z"/>
		</g>
		<path fill="#F7B132" stroke="#015A80" d="M405.067,427.58c2.42-3.577,3.166-5.715,1.544-5.751c-1.886-0.04-5.705,2.905-8.123,6.48
			c-2.42,3.577-2.211,6.88-0.637,6.479C399.413,434.381,402.652,431.158,405.067,427.58z"/>
	</g>
	<g>
		<g>
			<path fill-rule="evenodd" clip-rule="evenodd" fill="#1D1D1B" d="M354.891,461.646c0-10.648,8.577-19.28,19.154-19.28
				c10.579,0,19.157,8.632,19.157,19.28c0,10.651-8.578,19.284-19.157,19.284C363.469,480.93,354.891,472.297,354.891,461.646z"/>
			<path fill-rule="evenodd" clip-rule="evenodd" fill="#CECEB8" d="M360.808,461.646c0-7.36,5.929-13.326,13.237-13.326
				c7.315,0,13.239,5.966,13.239,13.326c0,7.361-5.924,13.327-13.239,13.327C366.737,474.973,360.808,469.007,360.808,461.646z"/>
			<g>
				<path fill-rule="evenodd" clip-rule="evenodd" fill="#BC2026" d="M375.005,451.901c-0.527-3.868-1.389-3.868-1.917,0
					c-0.527,3.868-4.067,6.469-7.865,5.781s-4.064,0.141-0.591,1.842c3.473,1.702,4.825,5.91,3.004,9.353
					c-1.821,3.443-1.123,3.956,1.55,1.14c2.673-2.816,7.048-2.816,9.721,0c2.673,2.816,3.37,2.302,1.548-1.14
					c-1.821-3.443-0.47-7.651,3.004-9.353c3.473-1.702,3.208-2.531-0.591-1.842C379.07,458.37,375.532,455.768,375.005,451.901z"/>
			</g>
			<path fill-rule="evenodd" clip-rule="evenodd" fill="#B2B390" d="M369.542,461.646c0-2.502,2.015-4.535,4.504-4.535
				c2.489,0,4.505,2.033,4.505,4.535c0,2.503-2.016,4.534-4.505,4.534C371.556,466.18,369.542,464.149,369.542,461.646z"/>
		</g>
	</g>
	<g>
		<g>
			<path fill-rule="evenodd" clip-rule="evenodd" fill="#1D1D1B" d="M220.787,462.543c0-10.648,8.577-19.28,19.154-19.28
				c10.579,0,19.156,8.632,19.156,19.28c0,10.651-8.577,19.284-19.156,19.284C229.364,481.827,220.787,473.195,220.787,462.543z"/>
			<path fill-rule="evenodd" clip-rule="evenodd" fill="#CECEB8" d="M226.703,462.543c0-7.359,5.929-13.326,13.238-13.326
				c7.315,0,13.239,5.967,13.239,13.326c0,7.361-5.924,13.327-13.239,13.327C232.632,475.87,226.703,469.905,226.703,462.543z"/>
			<g>
				<path fill-rule="evenodd" clip-rule="evenodd" fill="#BC2026" d="M240.901,452.798c-0.527-3.868-1.389-3.868-1.917,0
					c-0.527,3.868-4.067,6.469-7.865,5.781c-3.798-0.688-4.065,0.141-0.592,1.843c3.473,1.702,4.825,5.911,3.004,9.353
					s-1.123,3.955,1.551,1.14c2.673-2.815,7.048-2.815,9.72,0c2.673,2.816,3.369,2.303,1.548-1.14s-0.469-7.651,3.004-9.353
					s3.207-2.531-0.591-1.843S241.427,456.666,240.901,452.798z"/>
			</g>
			<ellipse fill-rule="evenodd" clip-rule="evenodd" fill="#B2B390" cx="239.941" cy="462.543" rx="4.504" ry="4.534"/>
		</g>
	</g>
</g>
</svg>
