<?xml version="1.0" encoding="utf-8"?>
<!-- Generator: Adobe Illustrator 24.3.0, SVG Export Plug-In . SVG Version: 6.00 Build 0)  -->
<svg version="1.1" id="Layer_1" xmlns="http://www.w3.org/2000/svg" xmlns:xlink="http://www.w3.org/1999/xlink" x="0px" y="0px"
	 viewBox="0 0 595.276 841.89" enable-background="new 0 0 595.276 841.89" xml:space="preserve">
<g>
	<g>
		<path fill="#EF353C" d="M759,604c7.721,0,7.734-12,0-12C751.279,592,751.266,604,759,604L759,604z"/>
	</g>
</g>
<g>
	<g>
		<path fill="#EF353C" d="M194.396,779.536c-2.701-2.654-5.222-5.436-7.677-8.315c-3.686-4.322,4.382,6.053,0.264,0.312
			c-1.099-1.532-2.16-3.09-3.182-4.674c-4.108-6.375-7.532-13.134-10.49-20.11c1.008,2.389,2.016,4.778,3.024,7.166
			c-5.799-14.126-9.317-28.906-11.439-44.005c0.357,2.658,0.714,5.317,1.072,7.975c-1.985-15.005-2.664-30.117-2.87-45.242
			c-0.203-14.895-0.159-29.813,1.769-44.608c-0.357,2.658-0.714,5.317-1.072,7.975c1.48-10.388,3.922-20.515,7.992-30.203
			c-1.008,2.389-2.016,4.778-3.024,7.166c1.463-3.328,3.059-6.587,4.884-9.732c0.908-1.565,1.871-3.096,2.881-4.597
			c0.427-0.644,0.867-1.28,1.32-1.908c1.825-2.474,1.196-1.676-1.884,2.394c2.619-2.397,4.715-5.388,7.388-7.788
			c2.091-1.879,5.733-2.908-1.319,0.818c1.771-0.936,3.413-2.345,5.14-3.39c13.424-8.121,19.634-27.285,10.763-41.046
			c-8.696-13.488-26.679-19.454-41.046-10.763c-16.836,10.186-30.757,25.696-38.982,43.593
			c-9.436,20.532-13.46,41.921-14.542,64.465c-0.946,19.722-0.55,39.782,1.132,59.454c1.714,20.043,4.672,40.355,11.611,59.325
			c7.943,21.715,19.25,41.843,35.862,58.163c11.207,11.01,31.4,12.012,42.426,0C205.31,810.074,206.357,791.287,194.396,779.536
			L194.396,779.536z"/>
	</g>
</g>
<g>
	<g>
		<path fill="#EF353C" d="M145.023,569.834c5.097,26.699,11.083,53.404,14.832,80.333c-0.357-2.658-0.714-5.317-1.072-7.975
			c1.685,12.742,2.454,25.551,0.866,38.344c0.357-2.658,0.714-5.317,1.072-7.975c-1.057,7.425-2.909,14.572-5.8,21.498
			c1.008-2.389,2.016-4.778,3.024-7.166c-0.237,0.531-0.473,1.061-0.71,1.592c-3.391,7.607-5.325,14.761-3.024,23.117
			c1.916,6.959,7.297,14.5,13.787,17.929c6.962,3.679,15.397,5.523,23.117,3.024c6.963-2.253,14.817-6.806,17.929-13.787
			c6.674-14.97,10.381-29.487,11.328-45.946c0.812-14.108-1.096-28.197-3.161-42.119c-3.818-25.733-9.454-51.269-14.332-76.818
			c-2.949-15.447-22.344-25.665-36.904-20.953C149.492,538.265,141.864,553.284,145.023,569.834L145.023,569.834z"/>
	</g>
</g>
<g>
	<g>
		<path fill="#EF353C" d="M218.192,672.162c23.806-10.24,33.096-37.61,39.797-60.409c6.619-22.521,11.897-45.437,15.797-68.585
			c4.739-28.131,8.474-56.042,3.012-84.35c-4.072-21.101-14.46-41.204-27.334-58.255c-15.031-19.909-32.472-37.12-50.876-53.88
			c-11.603-10.566-31.116-12.321-42.426,0c-10.57,11.515-12.392,31.141,0,42.426c12.471,11.357,24.873,22.851,36.056,35.501
			c2.646,2.993,5.181,6.07,7.697,9.172c1.907,2.43,1.313,1.662-1.781-2.306c0.634,0.842,1.261,1.69,1.88,2.543
			c1.233,1.7,2.436,3.422,3.603,5.168c4.629,6.924,8.64,14.207,11.936,21.857c-1.008-2.389-2.016-4.778-3.024-7.166
			c3.549,8.557,6.016,17.376,7.334,26.547c-0.357-2.658-0.714-5.317-1.072-7.975c1.835,14.647,0.815,29.299-1.077,43.885
			c0.357-2.658,0.714-5.317,1.072-7.975c-2.545,18.876-6.02,37.626-10.384,56.166c-4.04,17.162-8.232,34.818-14.862,51.194
			c1.008-2.389,2.016-4.778,3.024-7.166c-0.936,2.206-1.919,4.388-3.059,6.498c-1.036,1.917-2.967,3.937-3.741,5.935
			c0.222-0.572,4.824-5.569,2.059-2.907c-0.813,0.782-1.636,1.562-2.447,2.346c-2.371,2.289,6.404-3.865,2.241-1.906
			c-1.25,0.588-2.43,1.286-3.708,1.835c-6.418,2.76-12.025,11.532-13.787,17.929c-1.978,7.181-1.085,16.743,3.024,23.117
			c4.13,6.406,10.279,12.044,17.929,13.787C203.471,677.098,210.36,675.531,218.192,672.162L218.192,672.162z"/>
	</g>
</g>
<g>
	<g>
		<path fill="#EF353C" d="M205.858,357.053c-3.908-10.039-6.558-20.399-8.008-31.072c0.357,2.658,0.714,5.317,1.072,7.975
			c-1.377-11.288-1.373-22.584,0.028-33.869c-0.357,2.658-0.714,5.317-1.072,7.975c0.981-7.104,2.486-14.064,4.546-20.934
			c4.507-15.029-5.402-33.361-20.953-36.904c-16.155-3.68-32.078,4.859-36.904,20.953c-9.841,32.82-9.029,69.812,3.435,101.826
			c2.923,7.509,6.591,13.718,13.787,17.929c6.43,3.763,15.908,5.357,23.117,3.024C199.074,389.371,211.954,372.71,205.858,357.053
			L205.858,357.053z"/>
	</g>
</g>
<g>
	<g>
		<path fill="#EF353C" d="M143.167,286.242c5.624,22.932,19.022,45.225,37.457,60.123c9.355,7.56,19.092,13.139,29.507,18.991
			c2.203,1.238,4.388,2.513,6.502,3.899c1.035,0.678,4.791,3.506,0.626,0.242c-4.301-3.371-0.282-0.159,0.409,0.467
			c0.729,0.661,1.441,1.346,2.122,2.057c0.66,0.689,3.873,4.635,0.52,0.38c-3.314-4.206-0.327-0.122,0.299,1.005
			c0.811,1.46,1.489,2.982,2.149,4.515c-1.008-2.389-2.016-4.778-3.024-7.166c4.141,10.567,6.166,22.062,7.737,33.26
			c-0.357-2.658-0.714-5.317-1.072-7.975c1.87,14.275,2.305,28.62,1.287,42.98c-1.112,15.688,14.593,30.69,30,30
			c17.205-0.771,28.809-13.194,30-30c1.387-19.576-0.157-39.037-3.501-58.359c-3.342-19.314-9.066-39.489-24.09-53.122
			c-6.754-6.128-14.385-11.114-22.36-15.468c-6.281-3.429-12.172-7.398-18.337-10.956c6.836,3.945,3.419,2.695,1.302,0.872
			c-1.544-1.329-3.037-2.717-4.48-4.155c-1.082-1.079-2.136-2.186-3.16-3.321c-1.776-1.969-5.067-7.706-0.17,0.177
			c-3.828-6.163-7.745-11.771-10.639-18.501c1.008,2.389,2.016,4.778,3.024,7.166c-1.741-4.258-3.157-8.594-4.252-13.062
			c-3.74-15.249-21.788-25.845-36.904-20.953C148.294,254.461,139.16,269.903,143.167,286.242L143.167,286.242z"/>
	</g>
</g>
<g>
	<g>
		<path fill="#EF353C" d="M278.979,404.514c26.56-17.226,39.568-46.791,40.577-77.794c0.987-30.318-10.245-59.171-14.446-88.824
			c0.357,2.658,0.714,5.317,1.072,7.975c-1.252-9.665-1.641-19.278-0.486-28.973c-0.357,2.658-0.714,5.317-1.072,7.975
			c2.278-16.247,8.425-31.606,14.749-46.642c-1.008,2.389-2.016,4.778-3.024,7.166c1.688-3.939,3.447-7.848,5.472-11.628
			c1.003-1.872,2.061-3.716,3.199-5.51c0.58-0.913,4.733-6.594,1.29-2.123c-3.424,4.448,0.988-0.925,1.763-1.712
			c0.735-0.749,1.494-1.473,2.277-2.172c2.327-1.968,1.565-1.414-2.286,1.662c1.852-0.57,3.95-2.582,5.704-3.528
			c1.978-1.067,4.018-1.995,6.077-2.894c-2.389,1.008-4.778,2.016-7.166,3.024c18.867-7.834,38.778-13.592,58.107-20.19
			c14.82-5.059,26.151-20.84,20.953-36.904c-4.759-14.705-21.002-26.381-36.904-20.953c-17.263,5.892-34.661,11.49-51.802,17.729
			c-10.72,3.902-20.62,8.289-29.639,15.256c-8.326,6.433-15.034,14.216-20.601,23.195c-5.027,8.108-8.566,17.07-12.207,25.849
			c-3.236,7.806-6.383,15.678-8.974,23.724c-3.395,10.543-5.374,21.415-6.326,32.453c-0.961,11.139,0.412,22.148,1.965,33.168
			c2.863,20.318,9.196,39.944,12.127,60.251c-0.357-2.658-0.714-5.317-1.072-7.975c1.272,9.58,1.757,19.197,0.608,28.816
			c0.357-2.658,0.714-5.317,1.072-7.975c-0.901,6.492-2.514,12.758-4.964,18.839c1.008-2.389,2.016-4.778,3.024-7.166
			c-0.981,2.285-2.032,4.528-3.252,6.697c-0.85,1.511-3.764,4.525-4.018,6.185c0.101-0.656,4.689-5.547,1.907-2.662
			c-0.85,0.881-1.659,1.787-2.54,2.638c-0.65,0.628-1.811,2.198-2.73,2.448c1.247-0.963,2.494-1.927,3.741-2.89
			c-0.802,0.579-1.621,1.13-2.46,1.654c-13.151,8.529-19.824,26.991-10.763,41.046C246.404,406.89,264.896,413.648,278.979,404.514
			L278.979,404.514z"/>
	</g>
</g>
<g>
	<g>
		<path fill="#EF353C" d="M364.876,96.842c-22.657,30.805-45.032,63.235-52.506,101.506c-8.039,41.164-2.444,83.292,16.882,120.604
			c8.834,17.055,20.379,32.596,28.002,50.292c-1.008-2.389-2.016-4.778-3.024-7.166c2.904,7.017,5.068,14.178,6.163,21.704
			c-0.357-2.658-0.714-5.317-1.072-7.975c0.906,7.552,0.7,15.023-0.236,22.562c0.357-2.658,0.714-5.317,1.072-7.975
			c-1.599,11.352-4.658,22.37-7.827,33.366c-4.343,15.072,5.285,33.335,20.953,36.904c16.013,3.647,32.252-4.812,36.904-20.953
			c8.62-29.912,14.695-61.352,2.815-91.339c-5.231-13.204-11.756-25.407-19.097-37.53c-6.469-10.683-12.936-21.335-17.861-32.841
			c1.008,2.389,2.016,4.778,3.024,7.166c-5.014-12.107-8.406-24.702-10.235-37.675c0.357,2.658,0.714,5.317,1.072,7.975
			c-1.757-13.562-1.765-27.185,0.005-40.747c-0.357,2.658-0.714,5.317-1.072,7.975c1.863-13.112,5.39-25.758,10.517-37.966
			c-1.008,2.389-2.016,4.778-3.024,7.166c10.17-23.504,25.26-44.245,40.355-64.769c4.332-5.89,4.879-16.383,3.024-23.117
			c-1.916-6.959-7.297-14.5-13.787-17.929c-6.962-3.679-15.397-5.522-23.117-3.024C374.938,85.601,369.752,90.213,364.876,96.842
			L364.876,96.842z"/>
	</g>
</g>
<g>
	<g>
		<path fill="#EF353C" d="M177.06,821.875c16.074,16.468,41.599,23.377,63.653,16.208c14.899-4.843,26.101-20.997,20.953-36.904
			c-5.207-16.09-20.475-24.622-36.904-20.953c-1.577,0.352-3.139,0.651-4.735,0.907c2.658-0.357,5.317-0.714,7.975-1.072
			c-5.367,0.694-10.652,0.666-16.016-0.05c2.658,0.357,5.317,0.714,7.975,1.072c-4.8-0.78-9.392-2.07-13.891-3.914
			c2.389,1.008,4.778,2.016,7.166,3.024c-3.951-1.754-7.621-3.853-11.122-6.389c-10.094,17.269-20.189,34.539-30.283,51.808
			c31.639,15.386,66.796,20.388,101.715,17.338c35.76-3.124,70.243-12.524,105.158-20.266c15.339-3.401,25.767-22.027,20.953-36.904
			c-5.213-16.109-20.469-24.597-36.904-20.953c-28.063,6.223-55.854,13.843-84.376,17.764c2.658-0.357,5.317-0.714,7.975-1.072
			c-18.727,2.457-37.595,3.165-56.372,0.811c2.658,0.357,5.317,0.714,7.975,1.072c-12.629-1.718-24.926-4.815-36.702-9.724
			c2.389,1.008,4.778,2.016,7.166,3.024c-2.125-0.921-4.223-1.885-6.306-2.898c-14.091-6.852-33.085-4.304-41.046,10.763
			c-3.679,6.962-5.523,15.397-3.024,23.117c2.537,7.839,7.134,13.111,13.787,17.929c19.692,14.261,45.541,17.682,68.882,12.47
			c-5.317-19.286-10.634-38.571-15.95-57.857c-1.846,0.6-3.674,1.052-5.587,1.385c2.658-0.357,5.317-0.714,7.975-1.072
			c-2.897,0.368-5.709,0.407-8.619,0.135c2.658,0.357,5.317,0.714,7.975,1.072c-3.396-0.464-6.549-1.311-9.72-2.615
			c2.389,1.008,4.778,2.016,7.166,3.024c-1.766-0.816-3.376-1.782-5.055-2.752c-2.48-1.753-1.597-1.067,2.651,2.059
			c-0.72-0.638-1.408-1.31-2.063-2.015c-10.98-11.25-31.557-11.841-42.426,0C165.957,791.544,165.344,809.872,177.06,821.875
			L177.06,821.875z"/>
	</g>
</g>
<g>
	<g>
		<path fill="#EF353C" d="M310.011,850.105c46.533-4.85,91.365-19.234,131.002-44.402c13.236-8.405,19.766-27.081,10.763-41.046
			c-8.54-13.246-26.874-19.761-41.046-10.763c-12.776,8.112-26.166,15.118-40.104,21.014c2.389-1.008,4.778-2.016,7.166-3.024
			c-21.517,8.938-44.017,15.083-67.099,18.272c2.658-0.357,5.317-0.714,7.975-1.072c-2.882,0.379-5.767,0.718-8.658,1.02
			c-8.168,0.851-15.205,2.778-21.213,8.787c-5.203,5.203-9.121,13.74-8.787,21.213C280.676,834.964,293.295,851.847,310.011,850.105
			L310.011,850.105z"/>
	</g>
</g>
<g>
	<g>
		<path fill="#EF353C" d="M407.938,821.606c21.441-1.975,39.627-10.046,55.846-24.181c14.622-12.743,24.104-29.801,30.957-47.668
			c13.506-35.213,10.28-74.071,14.971-110.857c-0.357,2.658-0.714,5.317-1.072,7.975c2.538-18.643,7.847-36.604,13.348-54.548
			c4.39-14.322-4.074-29.78-17.37-35.391c-14.056-5.932-29.267-0.403-37.462,12.275c-9.186,14.21-16.301,29.463-22.305,45.268
			c19.286,5.317,38.571,10.634,57.857,15.95c5.346-36.377,14.528-72.113,27.517-106.516c13.084-34.655,28.129-68.383,28.56-106.167
			c0.17-14.955-11.548-27.521-26.012-29.464c-14.729-1.979-28.726,7.026-32.916,21.489c-1.522,5.254-3.326,10.393-5.414,15.449
			c1.008-2.389,2.016-4.778,3.024-7.166c-3.502,8.227-7.695,16.129-12.646,23.579c-1.236,1.861-2.516,3.693-3.836,5.495
			c-0.652,0.891-2.978,3.923,0.102-0.064c3.241-4.196,0.341-0.479-0.435,0.463c-2.841,3.45-5.838,6.773-8.982,9.95
			c-2.969,3-6.069,5.869-9.287,8.599c-0.947,0.803-1.918,1.576-2.869,2.373c-3.134,2.627,2.008-1.846,2.549-1.945
			c-1.521,0.279-4.097,2.988-5.441,3.907c-7.594,5.188-15.676,9.57-24.128,13.188c-6.416,2.747-12.029,11.544-13.787,17.929
			c-1.978,7.181-1.085,16.743,3.024,23.117c4.13,6.406,10.279,12.044,17.929,13.787c8.402,1.914,15.276,0.333,23.117-3.024
			c45.883-19.645,81.145-62.081,94.937-109.686c-19.643-2.658-39.286-5.317-58.928-7.975c-0.061,5.375-0.447,10.709-1.119,16.041
			c0.357-2.658,0.714-5.317,1.072-7.975c-4.434,31.88-18.9,60.957-29.615,90.982c-11.303,31.672-19.381,64.417-24.27,97.683
			c-1.22,8.304-1.391,15.571,3.024,23.117c3.642,6.223,10.777,12.158,17.929,13.787c7.68,1.749,16.3,1.371,23.117-3.024
			c6.913-4.457,10.871-10.254,13.787-17.929c0.845-2.223,1.719-4.432,2.624-6.631c-1.008,2.389-2.016,4.778-3.024,7.166
			c4.637-10.973,10.19-21.467,16.657-31.471c-18.277-7.706-36.555-15.411-54.832-23.117c-6.916,22.561-12.56,44.789-15.111,68.31
			c-2.257,20.808-2.213,41.797-4.907,62.566c0.357-2.658,0.714-5.317,1.072-7.975c-1.817,13.216-4.74,26.195-9.919,38.526
			c1.008-2.389,2.016-4.778,3.024-7.166c-2.024,4.607-4.286,9.104-6.993,13.352c-0.537,0.843-1.091,1.677-1.658,2.501
			c-0.691,1.003-3.553,4.779-0.331,0.596c3.057-3.968,0.694-0.95-0.024-0.11c-0.816,0.955-1.651,1.892-2.512,2.807
			c-1.374,1.461-2.806,2.87-4.291,4.218c-0.927,0.841-1.911,1.613-2.842,2.447c-2.617,2.345,5.462-3.853,2.514-1.959
			c-3.998,2.569-7.859,5.014-12.228,6.942c2.389-1.008,4.778-2.016,7.166-3.024c-4.587,1.89-9.26,3.216-14.168,3.955
			c2.658-0.357,5.317-0.714,7.975-1.072c-0.983,0.134-1.97,0.239-2.959,0.316c-8.116,0.748-15.271,2.845-21.213,8.787
			c-5.203,5.203-9.121,13.74-8.787,21.213C378.611,806.626,391.203,823.147,407.938,821.606L407.938,821.606z"/>
	</g>
</g>
<g>
	<g>
		<path fill="#EF353C" d="M361.48,419.072c-3.744,13.888-7.311,27.822-10.669,41.808c-1.679,6.993-3.31,13.997-4.891,21.013
			c-1.2,5.328-2.731,11.028-2.496,16.484c0.487,11.314,6.113,21.544,16.045,27.301c9.146,5.302,20.911,5.178,31.267,5.601
			c7.03,0.288,14.072,0.259,21.1-0.084c16.372-0.799,32.802-3.091,48.794-6.673c-7.706-18.277-15.411-36.555-23.117-54.832
			c-1.385,0.801-2.76,1.518-4.208,2.197c2.389-1.008,4.778-2.016,7.166-3.024c-3.464,1.45-6.921,2.417-10.632,2.994
			c2.658-0.357,5.317-0.714,7.975-1.072c-3.73,0.431-7.327,0.423-11.055-0.031c2.658,0.357,5.317,0.714,7.975,1.072
			c-3.162-0.514-6.153-1.317-9.144-2.472c2.389,1.008,4.778,2.016,7.166,3.024c-0.484-0.211-0.968-0.422-1.452-0.634
			c-7.67-3.347-14.699-5.342-23.117-3.024c-6.959,1.916-14.5,7.297-17.929,13.787c-3.679,6.962-5.522,15.397-3.024,23.117
			c2.242,6.927,6.805,14.882,13.787,17.929c10.797,4.712,21.635,8.21,33.639,7.534c11.819-0.666,22.839-3.639,33.135-9.589
			c12.967-7.494,17.993-23.912,12.275-37.463c-5.943-14.083-20.617-20.679-35.391-17.37c-6.873,1.539-13.786,2.791-20.762,3.763
			c2.658-0.357,5.317-0.714,7.975-1.072c-18.439,2.414-37.002,2.721-55.509,0.895c2.658,0.357,5.317,0.714,7.975,1.072
			c-0.412-0.067-0.823-0.134-1.235-0.201c2.389,1.008,4.778,2.016,7.166,3.024c-0.359-0.185-0.718-0.369-1.077-0.554
			c3.587,3.588,7.175,7.175,10.763,10.763c-0.216-0.373-0.432-0.747-0.648-1.12c1.365,5.047,2.731,10.094,4.096,15.142
			c-0.028-0.456-0.056-0.912-0.084-1.368c-0.357,2.658-0.714,5.317-1.072,7.975c1.892-11.692,5.201-23.325,8.018-34.825
			c2.878-11.748,5.902-23.459,9.051-35.137c4.081-15.137-5.098-33.292-20.953-36.904
			C382.599,394.524,365.852,402.858,361.48,419.072L361.48,419.072z"/>
	</g>
</g>
<g>
	<g>
		<path fill="#EF353C" d="M273.886,194.004c-0.027,79.263,10.383,158.794,30.748,235.394c3.846,14.465,18.427,23.436,32.916,21.489
			c6.295-0.846,12.801-3.431,17.226-8.251c4.977-5.422,9.782-13.543,8.787-21.213c-1.121-8.633-1.129-17.218-0.071-25.857
			c-0.357,2.658-0.714,5.317-1.072,7.975c1.21-8.619,3.435-16.913,6.723-24.971c-1.008,2.389-2.016,4.778-3.024,7.166
			c1.139-2.654,2.366-5.249,3.696-7.812c-18.635-5.047-37.269-10.094-55.904-15.142c-0.069,0.552-0.139,1.103-0.208,1.655
			c0.357-2.658,0.714-5.317,1.072-7.975c-2.309,17.137-6.85,33.788-13.483,49.754c1.008-2.389,2.016-4.778,3.024-7.166
			c-3.703,8.703-7.955,17.153-12.848,25.249c-2.3,3.806-4.732,7.533-7.29,11.171c-0.64,0.909-1.287,1.813-1.943,2.711
			c-0.447,0.612-3.907,5.155-0.663,0.962c2.952-3.815,0.414-0.559-0.232,0.241c-0.873,1.082-1.761,2.151-2.653,3.218
			c16.714,4.413,33.428,8.825,50.142,13.238c-4.483-13.559-8.404-27.283-10.478-41.436c0.357,2.658,0.714,5.317,1.072,7.975
			c-1.387-10.377-1.683-20.754-0.328-31.15c-0.357,2.658-0.714,5.317-1.072,7.975c0.171-1.22,0.367-2.435,0.588-3.647
			c-19.643-2.658-39.286-5.317-58.928-7.975c-0.674,5.953-1.406,11.898-2.198,17.836c0.357-2.658,0.714-5.317,1.072-7.975
			c-8.445,62.329-23.891,123.578-45.183,182.744c-6.092,16.927-12.669,33.674-19.659,50.25c1.008-2.389,2.016-4.778,3.024-7.166
			c-16.388,38.668-35.122,76.293-55.912,112.781c-11.493,20.172,3.189,44.462,25.904,45.142c8.158,0.244,16.268,0.955,24.361,2.003
			c-2.658-0.357-5.317-0.714-7.975-1.072c30.415,4.141,59.928,12.969,90.25,17.613c29.967,4.59,60.6,6.092,90.188-1.961
			c30.933-8.418,56.101-27.249,74.475-53.233c15.991-22.614,24.774-50.331,28.558-77.54c2.664-19.158,3.703-38.254,3.655-57.588
			c-0.041-16.629-1.651-33.703,0.261-50.256c-0.357,2.658-0.714,5.317-1.072,7.975c0.575-4.114,1.484-8.054,3.006-11.925
			c-1.008,2.389-2.016,4.778-3.024,7.166c1.168-2.624,5.873-9.04,0.021-1.722c-16.714-9.729-33.428-19.459-50.142-29.188
			c-0.249,0.8-0.531,1.588-0.849,2.363c1.008-2.389,2.016-4.778,3.024-7.166c-0.745,1.713-1.745,3.231-2.577,4.882
			c-1.491,2.957,5.234-5.865,2.123-2.689c-0.707,0.722-1.416,1.451-2.114,2.18c-0.832,0.869-3.515,2.872,0.712-0.368
			c4.399-3.372,1.148-0.908,0.035-0.203c-1.761,1.115-3.616,2.047-5.515,2.901c2.389-1.008,4.778-2.016,7.166-3.024
			c-3.965,1.641-8.023,2.718-12.272,3.312c2.658-0.357,5.317-0.714,7.975-1.072c-3.868,0.435-7.692,0.449-11.561,0.028
			c2.658,0.357,5.317,0.714,7.975,1.072c-4.022-0.554-7.811-1.601-11.585-3.087c2.389,1.008,4.778,2.016,7.166,3.024
			c-2.825-1.204-5.565-2.56-8.192-4.153c-1.09-0.661-2.155-1.361-3.202-2.086c-4.059-2.809,0.343,0.778,1.781,1.47
			c-4.692-2.258-9.327-8.728-12.565-12.659c-3.522-4.276,0.387,1.519,1.295,1.746c-0.543-0.136-2.436-3.363-2.761-3.83
			c-1.644-2.362-3.212-4.777-4.725-7.226c-3.467-5.613-6.655-11.383-9.296-17.432c1.008,2.389,2.016,4.778,3.024,7.166
			c-2.011-4.889-3.538-9.842-4.375-15.065c0.357,2.658,0.714,5.317,1.072,7.975c-0.439-3.56-0.53-6.975-0.168-10.544
			c-0.357,2.658-0.714,5.317-1.072,7.975c0.462-3.325,1.254-6.447,2.469-9.578c-1.008,2.389-2.016,4.778-3.024,7.166
			c0.563-1.289,1.143-2.547,1.842-3.769c0.642-1.122,3.266-4.653-0.007-0.393c-3.302,4.299-0.37,0.764,0.411-0.039
			c3.452-3.546-6.142,4.179-1.631,1.381c-13.682-13.682-27.364-27.364-41.046-41.046c-10.815,20.788-20.137,43.985-12.266,67.561
			c4.444,13.31,13.043,25.023,25.602,31.709c9.7,5.164,20.548,6.728,30.606,10.89c-2.389-1.008-4.778-2.016-7.166-3.024
			c4.021,1.758,7.916,3.745,11.636,6.079c1.812,1.137,3.538,2.727,5.421,3.709c-3.879-3.05-4.616-3.594-2.209-1.632
			c0.838,0.705,1.661,1.427,2.47,2.166c9.729-16.714,19.459-33.428,29.188-50.142c-12.024-1.837-23.687-5.127-34.931-9.758
			c2.389,1.008,4.778,2.016,7.166,3.024c-6.985-2.959-13.757-6.366-20.245-10.301c-3.025-1.834-5.986-3.774-8.877-5.813
			c-1.894-1.336-7.474-6.211-0.011,0.17c-1.342-1.148-2.766-2.206-4.119-3.343c-5.607-4.711-10.875-9.825-15.735-15.304
			c-1.34-1.511-2.65-3.049-3.926-4.614c-1.504-1.843-3.796-6.223,0.959,1.298c-2.153-3.406-4.69-6.584-6.846-10.002
			c-6.492-10.29-17.741-15.955-29.892-14.323c-12.166,1.635-21.057,9.974-24.941,21.489
			c-19.166,56.826-24.036,117.74-47.121,173.342c1.008-2.389,2.016-4.778,3.024-7.166c-7.448,17.641-16.824,34.052-28.356,49.34
			c-12.407,16.448-25.539,33.74-28.61,54.751c-1.603,10.968-0.56,20.913,7.715,29.188c7.994,7.995,18.458,9.825,29.188,7.715
			c54.499-10.714,109.09-20.953,163.767-30.714c-12.658-9.643-25.317-19.286-37.975-28.928c-0.035,0.426-0.07,0.852-0.105,1.277
			c0.357-2.658,0.714-5.317,1.072-7.975c-0.295,2.123-0.795,4.104-1.532,6.114c1.008-2.389,2.016-4.778,3.024-7.166
			c-0.668,1.57-1.486,2.984-2.301,4.475c-2.224,4.073,5.706-6.12,0.701-1.153c-5.026,4.987,5.205-2.987,1.1-0.695
			c-1.5,0.837-2.934,1.691-4.501,2.408c2.389-1.008,4.778-2.016,7.166-3.024c-2.381,0.969-4.758,1.654-7.296,2.075
			c2.658-0.357,5.317-0.714,7.975-1.072c-2.116,0.25-4.157,0.293-6.279,0.118c2.658,0.357,5.317,0.714,7.975,1.072
			c-1.703-0.231-3.314-0.586-4.956-1.094c0,19.286,0,38.571,0,57.857c35.424-12.774,73.567-28.115,98.307-57.935
			c12.821-15.454,23.475-33.442,27.32-53.405c4.16-21.592,2.726-44.625-8.41-64.076c-7.789-13.606-19.635-21.933-33.819-27.725
			c-8.712-3.557-18.062-5.132-26.74-8.784c2.389,1.008,4.778,2.016,7.166,3.024c-2.752-1.237-5.428-2.598-8.005-4.169
			c-1.282-0.782-2.51-1.627-3.759-2.459c-4.321-2.877,5.495,4.707,1.292,1.066c-4.425-3.833-8.594-7.812-12.438-12.238
			c-0.841-0.969-1.67-1.949-2.484-2.941c-0.654-0.797-1.299-1.6-1.937-2.41c0.932,1.206,1.864,2.412,2.795,3.618
			c-1.439-0.179-4.563-6.259-5.467-7.565c-3.525-5.093-6.863-10.312-10.176-15.546c-9.881-15.612-33.628-20.856-47.117-6.072
			c-11.364,12.454-20.807,27.357-20.796,44.815c0.007,11.185,4.948,22.695,13.019,30.412c5.727,5.476,12.625,9.117,19.465,12.925
			c10.664,5.936,21.629,11.547,31.822,18.278c1.161,0.767,2.284,1.59,3.444,2.356c5.044,3.33-5.294-4.655-0.788-0.641
			c2.078,1.851,4.18,3.636,6.1,5.659c0.624,0.658,2.966,2.733,3.178,3.63c-0.122-0.519-4.009-5.765-1.831-2.155
			c1.683,2.79,3.244,5.519,4.527,8.525c-1.008-2.389-2.016-4.778-3.024-7.166c1.153,2.999,1.999,5.997,2.536,9.167
			c-0.357-2.658-0.714-5.317-1.072-7.975c0.398,3.193,0.431,6.272,0.066,9.473c0.357-2.658,0.714-5.317,1.072-7.975
			c-0.481,2.936-1.265,5.686-2.385,8.444c1.008-2.389,2.016-4.778,3.024-7.166c-1.131,2.482-2.496,4.711-3.979,6.992
			c-1.903,2.928,4.847-5.513,1.434-2.044c-1.053,1.07-2.061,2.147-3.174,3.158c-0.905,0.823-4.6,3.762-0.443,0.505
			c4.143-3.245,0.393-0.428-0.655,0.231c-2.714,1.706-5.566,3.103-8.504,4.381c2.389-1.008,4.778-2.016,7.166-3.024
			c-8.994,3.632-18.409,5.479-27.988,6.776c2.658-0.357,5.317-0.714,7.975-1.072c-9.753,1.251-19.672,2.627-29.493,1.377
			c2.658,0.357,5.317,0.714,7.975,1.072c-2.812-0.452-5.486-1.121-8.149-2.14c2.389,1.008,4.778,2.016,7.166,3.024
			c-1.287-0.568-2.457-1.193-3.689-1.868c-4.074-2.234,4.379,4.271,2.211,1.698c-0.356-0.321-0.691-0.663-1.004-1.027
			c-1.563-1.731-0.734-0.642,2.489,3.267c-0.326-1.208-1.461-2.562-1.995-3.71c1.008,2.389,2.016,4.778,3.024,7.166
			c-1.072-2.689-1.745-5.378-2.157-8.244c0.357,2.658,0.714,5.317,1.072,7.975c-0.411-3.974-0.299-7.873,0.164-11.837
			c-0.357,2.658-0.714,5.317-1.072,7.975c1.262-8.891,4.096-17.476,7.574-25.732c-1.008,2.389-2.016,4.778-3.024,7.166
			c3.278-7.499,7.189-14.68,11.844-21.417c0.619-0.896,1.25-1.784,1.893-2.664c1.856-2.486,1.283-1.762-1.72,2.172
			c1.141-1.13,2.077-2.56,3.125-3.777c2.849-3.305,5.886-6.424,9.054-9.421c-15.706-2.024-31.412-4.048-47.117-6.072
			c2.21,4.388,4.278,8.833,6.213,13.349c-1.008-2.389-2.016-4.778-3.024-7.166c5.892,14.091,10.734,28.948,13.12,44.068
			c-0.357-2.658-0.714-5.317-1.072-7.975c0.197,1.918,0.245,3.617,0.101,5.54c0.357-2.658,0.714-5.317,1.072-7.975
			c-0.137,1.056-0.398,2.079-0.783,3.069c1.008-2.389,2.016-4.778,3.024-7.166c-0.319,0.813-0.716,1.587-1.19,2.321
			c3.528-4.216,4.246-5.249,2.154-3.098c6.53-6.079,3.352-2.484,0.402-1.099c2.389-1.008,4.778-2.016,7.166-3.024
			c-2.147,0.864-4.277,1.468-6.553,1.871c2.658-0.357,5.317-0.714,7.975-1.072c-11.942,1.49-23.719-0.272-35.613,2.751
			c-11.711,2.976-21.822,9.262-30.92,17.006c-16.241,13.825-26.29,36.753-25.235,58.034c0.479,9.663,4.148,17.629,11.823,23.559
			c8.076,6.239,16.328,6.97,26.153,5.37c0.621-0.101,1.243-0.202,1.864-0.304c-2.658,0.357-5.317,0.714-7.975,1.072
			c11.663-1.355,23.142,0.161,34.751-2.569c12.855-3.023,25.17-11.217,31.961-22.664c8.042-13.556,7.833-30.388-0.526-43.738
			c-8.911-14.231-28.246-24.213-44.867-17.616c-7.521,2.985-13.692,6.547-17.929,13.787c-3.763,6.43-5.357,15.907-3.024,23.117
			c2.349,7.259,6.848,14.263,13.787,17.929c6.688,3.534,15.761,5.944,23.117,3.024c0.705-0.348,1.446-0.577,2.223-0.687
			c-2.658,0.357-5.317,0.714-7.975,1.072c0.737-0.1,1.472-0.086,2.205,0.04c-2.658-0.357-5.317-0.714-7.975-1.072
			c0.735,0.13,1.441,0.353,2.117,0.671c-2.389-1.008-4.778-2.016-7.166-3.024c3.824,2.066-5.149-4.735-2.801-2.277
			c1.909,1.998-4.51-6.78-2.267-2.562c-1.008-2.389-2.016-4.778-3.024-7.166c0.5,1.19,0.833,2.253,1.095,3.516
			c-0.357-2.658-0.714-5.317-1.072-7.975c0.129,1.291,0.116,2.347-0.056,3.632c0.357-2.658,0.714-5.317,1.072-7.975
			c-0.178,0.844-0.448,1.656-0.811,2.439c1.008-2.389,2.016-4.778,3.024-7.166c-0.365,0.809-0.8,1.579-1.305,2.308
			c3.489-4.205,4.174-5.246,2.054-3.12c6.37-6.073,3.326-2.507,0.33-1.084c2.389-1.008,4.778-2.016,7.166-3.024
			c-2.617,1.08-5.245,1.808-8.038,2.281c2.658-0.357,5.317-0.714,7.975-1.072c-4.547,0.579-9.097,0.496-13.671,0.484
			c-6.844-0.019-13.427,0.763-20.21,1.868c12.658,9.643,25.317,19.286,37.975,28.928c-0.139-2.807-0.029-5.545,0.326-8.334
			c-0.357,2.658-0.714,5.317-1.072,7.975c0.597-3.69,1.594-7.194,2.996-10.657c-1.008,2.389-2.016,4.778-3.024,7.166
			c1.127-2.558,2.4-5.027,3.928-7.371c1.537-2.358,4.347-4.293-1.375,1.574c0.974-0.999,1.832-2.111,2.814-3.109
			c0.982-0.998,2.042-1.903,3.069-2.852c3.652-3.378-6.196,3.987-1.624,1.334c2.429-1.409,4.741-2.808,7.324-3.949
			c-2.389,1.008-4.778,2.016-7.166,3.024c3.475-1.401,6.985-2.365,10.694-2.9c-2.658,0.357-5.317,0.714-7.975,1.072
			c12.541-1.35,25.243,0.982,37.381-3.707c18.62-7.193,32.69-22.63,32.317-43.643c-0.226-12.786-4.295-26.352-8.268-38.453
			c-4.149-12.638-9.395-25.01-15.375-36.887c-8.971-17.816-33.874-18.596-47.117-6.072c-20.59,19.472-36.551,45.816-42.97,73.539
			c-3.96,17.103-4.026,35.245,4.401,51.08c9.658,18.148,28.106,26.331,47.642,28.309c13.588,1.375,28.094-1.284,41.426-3.407
			c14.731-2.347,29.809-7.122,41.973-15.963c13.755-9.998,25.503-23.541,29.502-40.518c4.262-18.091,0.664-37.665-9.609-53.182
			c-9.988-15.086-23.972-26.146-39.464-35.218c-6.792-3.977-13.724-7.723-20.6-11.551c-3.386-1.885-6.786-3.747-10.159-5.655
			c-1.126-0.637-2.56-1.841-3.775-2.23c4.033,3.359,4.934,4.014,2.702,1.963c2.993,4.292,3.741,5.146,2.243,2.561
			c1.008,2.389,2.016,4.778,3.024,7.166c-0.545-1.314-0.886-2.461-1.145-3.859c0.357,2.658,0.714,5.317,1.072,7.975
			c-0.121-1.403-0.111-2.649,0.014-4.052c-0.357,2.658-0.714,5.317-1.072,7.975c0.321-1.924,0.822-3.706,1.496-5.536
			c-1.008,2.389-2.016,4.778-3.024,7.166c1.123-2.627,2.463-5.098,4.062-7.469c1.643-2.436,3.597-2.624-1.386,1.643
			c1.114-0.954,2.028-2.367,3.017-3.45c-15.706-2.024-31.412-4.048-47.117-6.072c10.588,16.729,21.805,34.122,36.791,47.277
			c9.906,8.695,19.977,14.921,32.078,19.916c8.703,3.592,18.041,5.197,26.74,8.784c-2.389-1.008-4.778-2.016-7.166-3.024
			c1.883,0.847,3.618,1.866,5.437,2.824c4.684,2.466-5.362-5.133-0.676-0.35c4.701,4.799-2.901-5.373-0.427-0.626
			c0.96,1.843,2.006,3.594,2.867,5.495c-1.008-2.389-2.016-4.778-3.024-7.166c1.978,4.791,3.268,9.717,4.033,14.84
			c-0.357-2.658-0.714-5.317-1.072-7.975c0.756,6.084,0.692,12.107-0.09,18.186c0.357-2.658,0.714-5.317,1.072-7.975
			c-1.076,7.16-3.085,14.009-5.891,20.68c1.008-2.389,2.016-4.778,3.024-7.166c-1.686,3.819-3.563,7.536-5.719,11.113
			c-0.81,1.344-1.652,2.669-2.524,3.974c-1.419,2.124-6.293,7.048,0.071,0.269c-5.39,5.742-10.284,11.487-16.443,16.51
			c-5.587,4.557,4.811-3.323,0.056-0.064c-1.855,1.272-3.67,2.595-5.552,3.83c-3.297,2.164-6.676,4.201-10.116,6.128
			c-7.427,4.16-15.136,7.775-22.96,11.121c2.389-1.008,4.778-2.016,7.166-3.024c-8.389,3.534-16.903,6.741-25.465,9.828
			c-12.072,4.353-22.643,15.134-22.025,28.928c0.606,13.529,8.947,24.888,22.025,28.928c15.507,4.791,33.797,1.861,47.208-7.248
			c16.102-10.936,25.102-26.63,26.699-45.968c0.762-9.226-4.872-18.188-11.823-23.559c-7.995-6.177-16.395-7.112-26.153-5.37
			c-54.677,9.762-109.269,20-163.767,30.715c12.301,12.301,24.602,24.602,36.904,36.904c0.76-5.202,2.211-10.125,4.239-14.971
			c-1.008,2.389-2.016,4.778-3.024,7.166c7.318-16.427,19.9-29.56,29.791-44.381c11.113-16.654,19.416-35.013,26.502-53.689
			c12.774-33.664,19.465-69.209,27.358-104.222c4.57-20.272,9.552-40.466,16.198-60.17c-18.277,2.389-36.555,4.778-54.832,7.166
			c26.905,42.644,72.198,74.542,122.423,82.215c6.934,1.059,12.866,1.302,19.534-1.512c5.763-2.432,11.341-6.587,14.346-12.275
			c6.003-11.362,5.458-27.272-4.691-36.355c-8.177-7.318-17.203-14.088-27.21-18.702c-5.805-2.677-11.774-5.247-17.909-7.096
			c-4.504-1.358-9.08-2.357-13.459-4.11c2.389,1.008,4.778,2.016,7.166,3.024c-0.192-0.088-4.459-2.099-4.329-2.334
			c-0.109,0.197,6.718,5.111,2.387,1.5c-1.01-1.121-0.667-0.644,1.03,1.431c1.725,2.347,1.975,2.603,0.75,0.77
			c-0.579-1.269-1.313-2.464-1.877-3.751c1.008,2.389,2.016,4.778,3.024,7.166c-1.028-2.697-1.704-5.393-2.115-8.25
			c0.357,2.658,0.714,5.317,1.072,7.975c-0.294-2.875-0.301-5.677-0.022-8.554c-0.357,2.658-0.714,5.317-1.072,7.975
			c0.79-5.755,2.516-11.147,4.766-16.489c-1.008,2.389-2.016,4.778-3.024,7.166c1.875-4.238,3.972-8.36,6.11-12.47
			c5.961-11.458,5.38-27.11-4.691-36.355c-9.668-8.875-24.725-11.905-36.355-4.691c-18.906,11.727-30.27,33.82-28.9,56.129
			c1.279,20.831,10.384,39.992,21.963,57.048c10.629,15.656,23.65,30.56,40.52,39.703c17.614,9.547,37.307,12.481,56.854,7.794
			c22.31-5.35,39.879-21.536,47.124-43.174c4.034-12.047-2.571-27.954-13.787-33.879c-4.713-2.49-9.816-3.857-15.142-4.096
			c-6.665-0.299-16.909,3.404-21.213,8.787c-5.953,7.445-9.771,13.386-12.983,22.445c-2.187,6.168-2.897,12.804-3.612,19.268
			c-1.143,10.339-0.512,20.872-0.359,31.249c0.334,22.645,0.493,45.332-2.395,67.838c0.357-2.658,0.714-5.317,1.072-7.975
			c-2.159,15.817-5.901,31.244-12.076,45.991c1.008-2.389,2.016-4.778,3.024-7.166c-2.668,6.186-5.688,12.202-9.214,17.946
			c-1.751,2.853-3.672,5.568-5.596,8.305c-1.371,1.849-0.584,0.843,2.361-3.019c-0.635,0.802-1.281,1.595-1.938,2.378
			c-0.985,1.174-1.994,2.328-3.031,3.458c-2.072,2.259-4.241,4.429-6.51,6.49c-1.329,1.207-2.716,2.336-4.08,3.5
			c-1.789,1.444-0.779,0.669,3.032-2.324c-0.827,0.616-1.664,1.218-2.511,1.806c-5.705,3.961-11.828,7.199-18.213,9.912
			c2.389-1.008,4.778-2.016,7.166-3.024c-9.917,4.036-20.24,6.591-30.836,8.054c2.658-0.357,5.317-0.714,7.975-1.072
			c-17.344,2.199-34.816,1.503-52.113-0.783c2.658,0.357,5.317,0.714,7.975,1.072c-42.746-5.912-83.98-20.084-127.416-21.384
			c8.635,15.047,17.269,30.094,25.904,45.142c51.024-89.55,90.585-186.617,112.329-287.512
			c6.495-30.134,11.253-60.614,14.719-91.241c0.774-6.841-3.849-16.68-8.787-21.213c-4.955-4.549-10.529-7.351-17.226-8.251
			c-13.514-1.816-30.387,6.752-32.916,21.489c-3.089,17.998-2.771,34.583,0.008,52.578c2.086,13.51,5.926,26.649,10.21,39.606
			c3.333,10.082,10.472,18.067,20.953,20.953c9.608,2.646,22.498,0.284,29.188-7.715c13.842-16.549,25.767-34.328,34.357-54.161
			c9.606-22.178,15.426-44.119,18.44-68.086c-0.357-2.658-0.714-5.317-1.072-7.975c-0.928-3.904-2.718-7.305-5.37-10.202
			c-3.83-4.957-9.301-9.32-15.583-10.751c-12.539-2.856-27.616,1.708-33.879,13.787c-11.675,22.514-17.734,48.43-14.443,73.782
			c19.643-2.658,39.286-5.317,58.928-7.975c-9.605-36.128-16.918-72.815-21.918-109.862c0.357,2.658,0.714,5.317,1.072,7.975
			c-5.173-38.975-7.772-78.24-7.758-117.557c0.005-15.692-13.802-30.725-30-30C287.628,164.732,273.892,177.185,273.886,194.004
			L273.886,194.004z"/>
	</g>
</g>
<g>
	<g>
		<path fill="#EF353C" d="M940,305c9.415,0,18.435-8.279,18-18c-0.437-9.752-7.909-18-18-18c-9.415,0-18.435,8.279-18,18
			C922.437,296.752,929.909,305,940,305L940,305z"/>
	</g>
</g>
<g>
	<g>
		<path fill="#F29120" d="M244.819,787.756c-20.008-57.003-35.166-115.62-45.299-175.177c-11.571,3.19-23.143,6.38-34.714,9.57
			c17.49,42.636,30.963,86.812,40.244,131.952c5.786-7.595,11.571-15.19,17.357-22.785c-0.976,0.116-3.194,0.661-4.163,0.15
			c2.509,0.361,2.76,0.3,0.751-0.182c1.924,0.912,2.293,1.067,1.105,0.466c-0.537-0.357-3.907-2.939-2.285-1.333
			c2.422,2.399-3.123-3.289-0.806-0.836c0.779,1.092,0.675,0.929-0.31-0.489c-0.52-0.802-0.997-1.629-1.432-2.481
			c1.567,2.792-0.216-0.698-0.553-1.892c-0.471-1.665-0.849-3.374-1.097-5.086c0.463,3.197,0.015-1.388-0.019-2.179
			c-0.666-15.738,2.366-31.197-2.559-46.608c-7.381,7.381-14.761,14.761-22.142,22.142c3.106,0.711,6.129,1.602,9.109,2.734
			c-3.742-1.422,1.016,0.548,1.485,0.79c1.411,0.726,2.794,1.506,4.145,2.339c1.351,0.834,2.665,1.722,3.95,2.655
			c-3.153-2.289,0.924,0.873,1.275,1.192c3.318,3.009,6.223,6.51,10.106,8.867c18.416,11.178,35.909-2.226,44.56-18.507
			c14.271-26.858,26.725-55.107,35.228-84.343c8.58-29.503,12.897-60.558,10.931-91.28c-2.062-32.21-7.179-66.164-20.496-95.789
			c-6.354-14.134-15.868-27.535-27.951-37.324c-6.705-5.431-13.679-9.202-21.183-13.31c-1.4-0.766-2.759-1.574-4.097-2.443
			c1.501,1.274,1.471,1.231-0.088-0.128c-1.344-1.452-1.302-1.295,0.128,0.472c-0.826-1.352-1.366-4.386-0.545-0.707
			c-0.461-2.029-0.427-1.76,0.1,0.808c0.015,1.445-0.348,2.784-1.09,4.018c-9.423,1.214-18.847,2.429-28.27,3.643
			c3.947,4.56,7.776,9.211,11.512,13.945c0.222,0.281,2.057,2.686,0.503,0.645c0.73,0.958,1.457,1.919,2.179,2.883
			c2.167,2.893,4.298,5.814,6.394,8.76c6.647,9.34,12.957,18.916,19.057,28.621c12.638,20.104,25.159,40.56,36.288,61.543
			c5.881,11.087,8.738,16.996,11.533,29.703c0.32,1.454,0.531,2.93,0.842,4.384c0.679,3.172-0.189-4.066,0.172,1.506
			c0.175,2.702,0.365,5.388,0.373,8.099c0.007,2.695-0.1,5.388-0.309,8.075c0.029-0.378-0.545,5.476-0.252,2.972
			c0.18-1.543-0.521,3.18-0.643,3.846c-2.145,11.729-5.925,23.096-10.356,34.144c0.209-0.521-2.109,5.092-1.215,2.982
			c0.894-2.11-1.515,3.46-1.289,2.947c-1.115,2.531-2.257,5.051-3.414,7.563c-2.768,6.012-5.616,11.987-8.48,17.954
			c-12.19,25.39-25.006,50.475-38.394,75.253c-4.475,8.281-2.333,19.983,6.458,24.627c8.387,4.431,19.848,2.389,24.627-6.458
			c12.476-23.089,24.456-46.443,35.892-70.064c11.523-23.799,23.942-48.105,29.795-74.053c2.92-12.944,4.433-26.453,3.022-39.69
			c-1.536-14.41-5.763-27.511-11.711-40.683c-10.092-22.348-23.801-43.474-36.6-64.349c-15.145-24.702-31.543-48.677-50.53-70.611
			c-7.253-8.379-23.385-6.337-28.27,3.643c-8.723,17.82-0.167,35.74,15.744,45.648c4.947,3.081,10.395,5.238,15.279,8.442
			c0.419,0.275,4.555,3.309,1.381,0.826c1.221,0.955,2.397,1.974,3.545,3.015c2.707,2.454,5.093,5.149,7.528,7.862
			c3.359,3.743-1.824-2.865,1.02,1.293c0.59,0.862,1.206,1.703,1.79,2.57c1.75,2.599,3.366,5.29,4.859,8.044
			c1.573,2.901,3.06,5.882,4.32,8.934c-1.265-3.063,0.903,2.543,0.894,2.518c0.63,1.723,1.225,3.458,1.791,5.203
			c4.599,14.193,7.25,28.997,9.507,43.718c0.298,1.943,0.591,3.888,0.855,5.836c-0.431-3.184,0.382,3.203,0.359,3.014
			c0.381,3.252,0.717,6.511,0.996,9.773c0.716,8.372,1.064,16.778,0.91,25.181c-0.121,6.587-0.539,13.167-1.227,19.719
			c-0.187,1.783-0.39,3.565-0.622,5.343c0.485-3.722-0.337,2.117-0.368,2.315c-0.556,3.544-1.188,7.076-1.889,10.594
			c-2.816,14.13-6.762,28.023-11.52,41.619c-2.193,6.266-4.56,12.471-7.073,18.616c-0.008,0.019-2.322,5.497-0.989,2.39
			c-0.715,1.667-1.44,3.33-2.176,4.988c-1.715,3.869-3.484,7.714-5.3,11.537c-3.364,7.083-6.87,14.105-10.549,21.03
			c-0.731,1.375-1.443,2.757-2.268,4.08c-0.384,0.631-0.793,1.247-1.225,1.845c-0.744,1.058-0.568,0.81,0.529-0.745
			c-0.334,0.348-0.667,0.697-1.001,1.045c-1.519,1.371-1.39,1.278,0.387-0.277c3.003-1.499,8.949-1.89,10.807,1.587
			c-1.394-2.609-5.5-5.376-7.761-7.251c-3.193-2.647-6.567-5.225-10.105-7.408c-7.118-4.392-15.193-7.628-23.339-9.493
			c-12.766-2.923-26.509,8.477-22.142,22.142c0.709,2.22,1.303,4.442,1.691,6.743c-0.609-3.619,0.116,3.175,0.136,3.896
			c0.113,4.108-0.094,8.216-0.288,12.318c-0.464,9.804-0.586,19.607,1.704,29.239c4.473,18.816,22.085,37.172,42.84,34.705
			c12.047-1.432,19.923-10.305,17.357-22.785c-9.281-45.14-22.754-89.315-40.244-131.952c-3.56-8.678-12.118-15.816-22.142-12.572
			c-10.043,3.25-14.269,12.169-12.572,22.142c10.133,59.557,25.291,118.174,45.299,175.177c3.111,8.863,12.449,15.709,22.142,12.572
			C241.005,807.064,248.158,797.268,244.819,787.756L244.819,787.756z"/>
	</g>
</g>
<g>
	<g>
		<path fill="#F29120" d="M328.306,523.471c13.338-26.855,17.008-56.937,9.991-86.155c-1.661-6.918-8.17-11.98-14.964-12.893
			c-7.697-1.034-13.446,2.636-17.935,8.594c-6.007,7.971-10.201,17.469-12.312,27.216c11.786,1.595,23.571,3.19,35.357,4.785
			c-0.406-15.665-0.812-31.331-1.218-46.996c-0.39-15.035-19.735-24.466-30.728-12.728c-7.346,7.843-9.6,17.23-7.537,27.671
			c1.461,7.394,9.93,13.548,17.357,13.215c8.583-0.384,14.258-5.499,17.357-13.215c14.677-36.538,18.207-76.483,11.954-115.226
			c-3.056-18.935-8.545-37.37-11.875-56.251c-0.373-2.115-0.693-4.238-1.03-6.359c-0.337-2.125-0.016-0.158,0.029,0.235
			c-0.14-1.215-0.283-2.429-0.403-3.646c-0.481-4.866-0.74-9.757-0.688-14.647c0.11-10.42,0.941-14.723,3.237-25.008
			c2.13-9.541,4.365-19.244,7.565-28.493c0.24-0.695,0.499-1.383,0.743-2.077c1.527-4.334-1.075,1.888,0.145-0.411
			c1.01-1.903,1.888-3.837,3.046-5.664c0.502-0.792,1.035-1.561,1.584-2.321c-0.862,1.195-1.576,1.789-0.138,0.442
			c0.671-0.629,1.338-1.282,2.004-1.92c-2.131,2.042-0.64,0.52,0.95-0.427c8.09-4.817,11.755-16.41,6.458-24.627
			c-5.248-8.14-15.97-11.613-24.627-6.458c-16.703,9.946-23.699,27.884-28.365,45.831c-5.204,20.018-9.712,40.4-8.293,61.214
			c1.393,20.433,6.511,40.242,10.976,60.145c1.084,4.83,2.117,9.672,3.018,14.539c0.449,2.427,0.852,4.861,1.238,7.299
			c0.01,0.061,0.434,3.067,0.192,1.244c-0.259-1.949,0.294,2.638,0.336,3.039c1.014,9.675,1.306,19.423,0.878,29.141
			c-0.24,5.463-0.685,10.929-1.399,16.352c0.107-0.81,0.474-3.033-0.123,0.633c-0.195,1.2-0.385,2.401-0.593,3.599
			c-0.522,2.995-1.113,5.978-1.772,8.945c-2.376,10.696-5.678,21.141-9.76,31.305c11.571,0,23.143,0,34.714,0
			c0.528,2.671,0.217,5.286-1.722,7.355c-10.243-4.243-20.485-8.485-30.728-12.728c0.406,15.665,0.812,31.331,1.218,46.996
			c0.233,8.995,6.672,16.478,15.607,17.678c8.39,1.127,17.845-4.104,19.75-12.893c0.48-2.214,1.025-4.398,1.743-6.549
			c0.243-0.729,2.255-5.014,0.722-1.986c1.8-3.557,3.815-6.892,6.219-10.082c-10.966-1.433-21.933-2.867-32.9-4.3
			c0.674,2.806,1.235,5.618,1.728,8.461c0.579,3.334,0.07-0.82,0.135,1.209c0.046,1.432,0.262,2.87,0.347,4.304
			c0.34,5.762,0.15,11.512-0.397,17.254c-0.135,1.415-0.348,2.251-0.023,0.355c-0.292,1.705-0.569,3.406-0.916,5.102
			c-0.52,2.539-1.137,5.057-1.843,7.551c-0.785,2.771-1.683,5.507-2.695,8.203c-0.382,1.017-1.5,3.617-0.472,1.296
			c-0.7,1.58-1.457,3.133-2.226,4.681c-4.183,8.422-2.534,19.877,6.458,24.627C311.818,534.229,323.834,532.475,328.306,523.471
			L328.306,523.471z"/>
	</g>
</g>
<g>
	<g>
		<path fill="#F29120" d="M315.33,150.267c-7.104,44.095-10.281,88.723-8.604,133.374c1.608,42.839,9.608,85.097,11.351,127.9
			c0.484,11.88,0.423,23.793-0.552,35.648c-0.23,2.795-0.562,5.574-0.849,8.363c-0.32,3.108,0.414-2.313-0.104,0.769
			c-0.258,1.536-0.473,3.08-0.739,4.615c-1.07,6.176-2.466,12.278-4.135,18.319c-2.505,9.068,3.099,19.985,12.572,22.142
			c9.52,2.168,19.459-2.859,22.142-12.572c11.623-42.075,8.11-85.673,3.169-128.447c-4.986-43.161-8.595-86.018-6.685-129.515
			c0.543-12.372,1.438-24.727,2.684-37.048c1.353-13.383,2.406-21.194,4.466-33.979c1.492-9.259-2.387-19.822-12.572-22.142
			C328.823,135.725,316.931,140.326,315.33,150.267L315.33,150.267z"/>
	</g>
</g>
<g>
	<g>
		<path fill="#F29120" d="M320.085,313.465c8.518,22.819,15.116,46.318,19.591,70.264c1.147,6.137,2.153,12.299,3.029,18.48
			c-0.115-0.814-0.368-2.951,0.105,0.783c0.196,1.548,0.385,3.097,0.565,4.648c0.396,3.41,0.752,6.826,1.063,10.245
			c1.103,12.118,1.66,24.275,1.722,36.442c0.124,24.287,0.011,49.747,13.06,71.222c5.881,9.679,14.258,18.678,24.483,23.819
			c13.27,6.672,27.451,7.511,41.872,4.775c13.631-2.587,26.507-8.966,38.901-14.97c12.61-6.108,24.971-12.705,37.098-19.721
			c8.153-4.717,11.709-16.482,6.458-24.627c-5.302-8.224-15.904-11.504-24.627-6.458c-9.971,5.769-20.097,11.26-30.397,16.419
			c-4.731,2.37-9.493,4.683-14.293,6.909c-1.076,0.499-2.163,0.979-3.237,1.482c-5.184,2.428,1.652-0.616-1.492,0.669
			c-2.789,1.14-5.614,2.19-8.482,3.111c-2.555,0.821-5.142,1.547-7.765,2.116c-1.149,0.249-2.308,0.474-3.47,0.662
			c3.066-0.497,0.179-0.044-0.419-0.034c-1.444,0.024-2.875,0.132-4.321,0.102c-0.858-0.018-4.591-0.37-1.216,0.114
			c-1.131-0.162-2.288-0.428-3.39-0.709c-0.978-0.249-5.732-2.1-1.747-0.305c-1.761-0.793-3.377-1.802-5.041-2.77
			c-2.741-1.594-0.411-0.209,0.169,0.271c-0.927-0.766-1.822-1.561-2.687-2.396c-0.809-0.78-4.834-5.598-2.449-2.362
			c-1.455-1.975-2.787-4.038-3.981-6.181c-0.96-1.723-1.842-3.496-2.627-5.305c1.526,3.519,0.253,0.398-0.066-0.523
			c-0.402-1.16-0.774-2.327-1.111-3.507c-0.643-2.247-1.169-4.531-1.614-6.825c-0.234-1.207-0.446-2.423-0.631-3.639
			c0.49,3.219-0.181-1.917-0.238-2.552c-1.03-11.43-0.606-22.926-0.798-34.384c-0.399-23.757-2.885-47.5-7.04-70.889
			c-4.48-25.216-11.308-49.959-20.263-73.949c-3.283-8.795-12.323-15.75-22.142-12.572
			C324.049,294.108,316.559,304.021,320.085,313.465L320.085,313.465z"/>
	</g>
</g>
<g>
	<g>
		<path fill="#F29120" d="M478.472,493.702c-34.145,45.246-44.416,102.459-54.811,156.785c-2.73,14.269-5.551,28.528-8.988,42.647
			c-1.641,6.738-3.421,13.442-5.393,20.091c-1.076,3.628-2.211,7.239-3.412,10.828c-0.583,1.742-1.174,3.482-1.797,5.21
			c-0.387,1.085-0.789,2.165-1.206,3.239c0.613-1.369,0.658-1.477,0.134-0.325c-0.644,1.282-1.227,2.584-1.935,3.835
			c-0.124,0.219-3.246,4.732-1.054,2.003c-1.017,1.267-2.225,2.316-3.369,3.458c-3.273,3.266,2.567-1.207-1.474,1.078
			c-5.883,3.326-11.779,6.264-18.021,8.898c2.808-1.185-2.995,1.23-2.782,1.143c-1.184,0.485-2.369,0.967-3.555,1.444
			c-3.56,1.433-7.134,2.831-10.72,4.195c-7.174,2.728-14.4,5.317-21.674,7.765c-15.191,5.113-30.636,10.016-46.406,13.002
			c-1.77,0.335-3.545,0.626-5.322,0.917c-2.187,0.325-2.368,0.352-0.545,0.081c-1.182,0.138-2.367,0.258-3.553,0.363
			c-3.532,0.308-7.078,0.468-10.624,0.43c-1.76-0.019-3.519-0.083-5.275-0.203c-1.168-0.078-2.333-0.181-3.496-0.307
			c1.886,0.281,1.745,0.25-0.422-0.094c-4.06-0.828-8.001-1.792-11.923-3.145c1.433,10.966,2.867,21.933,4.3,32.899
			c5.06-2.975,10.234-5.727,15.568-8.181c0.129-0.059,5.43-2.346,2.153-0.993c1.084-0.447,2.175-0.88,3.269-1.302
			c3.283-1.269,6.605-2.433,9.96-3.497c5.591-1.774,11.276-3.251,17.019-4.44c2.874-0.595,5.762-1.087,8.658-1.556
			c5.656-0.916-3.514,0.247,2.192-0.277c1.752-0.161,3.5-0.36,5.254-0.499c12.413-0.983,24.922,0.646,37.279-0.76
			c14.595-1.661,26.777-7.789,37.775-17.419c8.232-7.208,14.887-16.073,21.577-24.67c7.951-10.217,15.944-20.505,22.089-31.945
			c6.467-12.039,10.618-24.829,12.816-38.283c1.151-7.045,1.955-14.14,2.932-21.21c-0.419,3.03,0.14-0.876,0.248-1.602
			c0.227-1.527,0.465-3.052,0.72-4.575c0.62-3.699,1.328-7.383,2.09-11.055c6.115-29.49,15.501-59.017,13.287-89.494
			c-0.557-7.666-5.169-15.524-13.215-17.357c-7.31-1.665-16.869,0.929-20.328,8.272c-10.391,22.063-19.938,44.554-28.4,67.428
			c-7.914,21.392-13.805,43.437-21.576,64.86c-3.248,8.954-7.322,17.487-13.262,27.518c-5.487,9.266-11.594,18.146-17.797,26.942
			c-2.975,4.219-5.873,8.529-9.048,12.601c1.941-2.489-1.762,1.998-2.477,2.779c-1.843,2.01-3.79,4.032-5.971,5.678
			c2.606-1.966-0.44,0.092-1.121,0.496c-1.224,0.727-2.479,1.391-3.771,1.991c2.984-1.385-3.036,0.957-3.71,1.159
			c-5.229,1.563-10.616,2.643-15.971,3.675c-3.149,0.607-6.308,1.114-9.47,1.647c-0.553,0.093-3.534,0.496-0.42,0.089
			c-1.736,0.227-3.478,0.42-5.22,0.593c-5.773,0.57-11.579,0.862-17.381,0.75c-2.874-0.055-5.731-0.265-8.597-0.474
			c-3.59-0.263-1.113-0.065-0.317,0.041c-1.691-0.224-3.375-0.529-5.048-0.862c-3.065-0.61-6.097-1.378-9.079-2.314
			c-1.087-0.341-2.165-0.704-3.236-1.091c-0.807-0.285-1.608-0.587-2.403-0.907c1.659,0.708,1.516,0.623-0.431-0.255
			c2.757,6.776,5.515,13.552,8.272,20.328c6.329-16.812,11.078-34.113,14.218-51.799c-11.786-1.595-23.571-3.19-35.357-4.785
			c0.424-3.356-0.384,1.7-0.526,2.361c-0.442,2.067-0.976,4.111-1.591,6.133c-0.527,1.734-1.111,3.446-1.767,5.136
			c-0.455,1.169-0.433,1.127,0.066-0.125c-0.501,1.099-1.029,2.184-1.583,3.257c9.423-1.214,18.847-2.429,28.27-3.643
			c-0.785-0.663-4.518-5.099-2.236-1.756c-0.361-0.529-2.695-5.14-1.899-3.068c0.819,2.134-0.688-2.973-0.796-3.526
			c1.094,5.598,0.719-4.912-0.064,0.712c-11.571,0-23.143,0-34.714,0c7.013,21.647,25.462,39.904,48.225,44.305
			c25.379,4.906,48.096-6.054,69.662-18.178c20.355-11.444,40.958-23.865,55.793-42.292c14.634-18.177,24.203-39.402,30.795-61.694
			c7.904-26.726,11.572-54.483,19.217-81.28c2.103-7.373-1.323-16.656-8.272-20.328c-7.32-3.868-15.696-2.78-21.813,2.815
			c-21.946,20.071-36.173,46.501-50.888,71.922c-3.496,6.039-7.054,12.044-10.818,17.921c-1.875,2.927-3.799,5.824-5.792,8.673
			c-0.918,1.312-1.85,2.616-2.798,3.907c-0.631,0.86-1.268,1.718-1.916,2.565c1.172-1.533,0.484-0.621-0.311,0.351
			c-9.705,11.871-20.633,22.571-32.351,32.446c-3.325,2.802-6.711,5.528-10.119,8.228c-0.047,0.037-2.299,1.804-0.926,0.734
			c1.473-1.148-2.019,1.543-2.325,1.776c-1.62,1.23-3.247,2.45-4.879,3.664c-7.22,5.371-14.544,10.599-21.87,15.823
			c8.814,3.586,17.628,7.172,26.442,10.757c-0.275-1.548-0.537-3.097-0.781-4.65c-0.19-1.281-0.191-1.243-0.005,0.115
			c-0.073-0.624-0.146-1.249-0.219-1.873c-0.315-3.13-0.602-6.256-0.762-9.398c-0.16-3.139-0.231-6.284-0.205-9.427
			c0.014-1.642,0.065-3.273,0.147-4.913c0.104-2.096,0.358-1.182-0.042,0.29c0.948-3.492-1.959,1.597,0.422-1.18
			c-0.164,0.191-1.735,2.637-2.15,2.248c-0.242-0.227,7.941-3.867,4.221-2.391c5.897-2.339,11.906-4.346,18.051-5.93
			c2.923-0.754,5.868-1.416,8.832-1.987c1.483-0.286,2.97-0.53,4.457-0.791c0.597-0.092,1.193-0.184,1.79-0.276
			c-1.496,0.19-1.595,0.208-0.297,0.052c3.008-0.281,6.001-0.605,9.02-0.767c1.483-0.08,3.057,0.005,4.524-0.175
			c0.445-0.002,0.889-0.005,1.334-0.007c-2.277-0.03-4.12-1.038-5.532-3.025c-2.001-0.659-3.261-1.874-3.779-3.643
			c-0.529-1.383-0.526-1.301,0.009,0.245c0.425,1.554,0.969,3.083,1.452,4.62c0.968,3.08,1.936,6.16,2.903,9.24
			c2.032,6.468,4.065,12.935,6.097,19.403c1.902,6.052,6.353,10.859,12.572,12.572c5.601,1.542,13.702,0.257,17.513-4.629
			c9.872-12.656,19.248-27.457,22.441-43.456c2.491-12.485-3.954-24.932-16.591-28.471c-7.808-2.186-15.836-0.596-23.178,2.312
			c-15.26,6.044-29.03,13.861-41.958,23.966c-13.178,10.3-33.317,28.056-20.755,46.368c5.475,7.98,15.752,11.712,24.627,6.458
			c20.818-12.324,38.19-30.744,48.54-52.672c3.326-7.047,3.387-16.12-2.815-21.813c-5.756-5.284-14.892-7.211-21.813-2.815
			c-20.93,13.295-39.976,29.551-55.985,48.5c10.028,5.838,20.057,11.675,30.085,17.513c5.245-35.384,7.406-70.977,5.662-106.723
			c-0.883-18.089-23.622-24.155-33.542-9.085c-14.038,21.326-24.194,45.411-29.66,70.35c-1.936,8.831,1.926,17.65,10.422,21.235
			c8.184,3.453,17.89,0.416,22.477-7.365c14.051-23.832,26.075-48.646,36.611-74.217c-11.571,0-23.143,0-34.714,0
			c2.221,7.085,3.79,14.341,4.796,21.698c-0.418-3.06,0.223,2.192,0.266,2.597c0.2,1.851,0.378,3.705,0.546,5.559
			c0.336,3.706,0.617,7.418,0.9,11.128c0.687,9.007,6.326,16.431,15.607,17.679c9.238,1.241,16.693-4.346,19.75-12.893
			c9.043-25.289,16.423-51.12,22.105-77.369c-11.786-1.595-23.571-3.19-35.357-4.785c2.425,18.199,4.851,36.398,7.276,54.598
			c1.199,8.997,5.939,16.379,15.607,17.679c8.213,1.104,18.089-4.069,19.75-12.893c3.608-19.17,7.215-38.34,10.823-57.509
			c-11.571,0-23.143,0-34.714,0c0.937,3.008,1.792,6.033,2.486,9.107c0.347,1.535,0.655,3.079,0.933,4.628
			c0.086,0.481,0.662,4.49,0.329,1.752c0.763,6.257,0.851,12.567,0.521,18.855c-0.468,8.936,7.21,16.55,15.607,17.679
			c8.032,1.079,18.338-4.039,19.75-12.893c1.388-8.701,3.39-17.267,6.135-25.643c0.661-2.018,1.36-4.024,2.1-6.015
			c0.423-1.138,0.859-2.27,1.308-3.398c0.751-1.844,0.913-2.249,0.486-1.214c-0.432,1.033-0.251,0.637,0.543-1.189
			c0.499-1.106,1.011-2.207,1.535-3.301c1.049-2.19,2.158-4.347,3.293-6.494c-10.967-1.433-21.933-2.867-32.9-4.3
			c0.391,1.466,0.715,2.928,0.992,4.418c-0.783-4.217-0.142,0.413-0.135,1.223c0.013,1.523-0.12,3.005-0.212,4.522
			c0.256-4.196-0.191,0.31-0.405,1.163c-0.367,1.47-0.855,2.895-1.341,4.329c0.995-2.931,0.019-0.098-0.689,1.192
			c-0.604,1.1-1.385,2.113-1.972,3.213c-0.734,1.052-0.549,0.843,0.555-0.625c-0.644,0.775-1.318,1.523-2.023,2.244
			c8.485,0,16.971,0,25.456,0c-1.389-1.433-2.709-2.911-4.025-4.41c-1.208-1.378-0.873-1.13,0.057,0.164
			c-0.574-0.798-1.159-1.586-1.717-2.396c-2.36-3.431-4.438-7.053-6.244-10.803c-0.171-0.354-1.557-3.235-0.61-1.201
			c0.941,2.021-0.343-0.878-0.49-1.261c-0.707-1.844-1.354-3.709-1.946-5.592c-1.268-4.039-2.278-8.157-3.056-12.318
			c-0.245-1.314-0.904-6.565-0.502-2.672c-0.208-2.014-0.44-4.022-0.589-6.042c-0.3-4.058-0.411-8.13-0.355-12.198
			c0.06-4.33,0.313-8.656,0.738-12.965c0.1-1.01,0.239-2.019,0.328-3.03c0.241-2.747-0.489,2.98-0.047,0.267
			c0.364-2.236,0.708-4.472,1.117-6.701c1.691-9.23-2.525-19.854-12.572-22.142c-8.999-2.05-20.104,2.711-22.142,12.572
			c-3.815,18.453-7.63,36.905-11.445,55.358c-1.901,9.195,2.673,19.887,12.572,22.142c9.043,2.06,20.049-2.722,22.142-12.572
			c6.41-30.161,12.819-60.322,19.229-90.484c1.88-8.848-1.886-17.633-10.422-21.235c-7.407-3.126-18.947-0.878-22.478,7.365
			c-9.224,21.538-16.269,43.668-19.857,66.868c-3.287,21.251-6.763,46.751,7.184,65.208c8.571,11.342,22.554,11.593,31.085,0
			c6.766-9.194,11.57-20.005,14.137-31.119c2.114-9.155-2.822-19.922-12.572-22.142c-9.719-2.214-19.215,2.924-22.142,12.572
			c-14.836,48.908-26.288,98.782-34.273,149.263c-1.419,8.973,1.553,17.492,10.422,21.235c7.592,3.204,18.691,0.778,22.478-7.365
			c11.534-24.804,21.039-50.46,27.968-76.929c2.382-9.098-3.011-19.965-12.572-22.142c-9.413-2.144-19.591,2.826-22.142,12.572
			c-3.184,12.163-6.857,24.188-11.091,36.028c-2.01,5.622-4.141,11.201-6.388,16.732c-0.285,0.701-1.616,3.94-0.716,1.795
			c-0.607,1.449-1.238,2.889-1.868,4.328c-1.387,3.167-2.818,6.312-4.276,9.447c10.966,4.623,21.933,9.247,32.9,13.87
			c7.985-50.481,19.437-100.355,34.273-149.263c-11.571-3.19-23.143-6.38-34.714-9.57c-0.496,2.149-1.043,4.28-1.719,6.38
			c-0.338,1.049-0.72,2.082-1.087,3.12c-1.089,3.078,0.529-0.665-0.446,1.022c-2.368,4.095-4.432,8.162-7.255,11.998
			c10.362,0,20.723,0,31.085,0c-1.241-1.642-2.234-3.336-3.281-5.099c-0.885-1.857-0.874-1.805,0.033,0.156
			c-0.337-0.95-0.637-1.912-0.899-2.886c-0.24-0.883-1.158-7.182-0.73-2.751c-0.201-2.075-0.325-4.148-0.352-6.233
			c-0.055-4.173,0.235-8.341,0.652-12.491c0.063-0.63,0.883-7.491,0.479-4.474c0.33-2.465,0.725-4.923,1.141-7.374
			c1.664-9.809,3.9-19.522,6.691-29.072c1.395-4.775,2.93-9.51,4.6-14.195c0.835-2.343,1.705-4.674,2.608-6.991
			c0.452-1.159,0.912-2.314,1.38-3.466c0.829-2.013,0.946-2.3,0.351-0.861c-10.967-4.623-21.933-9.247-32.9-13.87
			c-6.41,30.161-12.819,60.322-19.229,90.484c11.571,3.19,23.143,6.38,34.714,9.57c3.815-18.453,7.63-36.905,11.445-55.358
			c-11.571-3.19-23.143-6.38-34.714-9.57c-7.403,40.412-3.29,85.351,26.599,116.186c6.611,6.821,18.867,7.02,25.456,0
			c14.269-15.203,19.886-36.484,14.488-56.706c-3.878-14.53-25.584-18.134-32.9-4.3c-9.257,17.506-15.909,36.284-19.03,55.853
			c11.786,1.595,23.571,3.19,35.357,4.785c0.773-14.761-1.158-29.802-5.555-43.913c-2.276-7.302-9.329-13.574-17.357-13.215
			c-7.471,0.335-15.865,5.285-17.357,13.215c-3.608,19.17-7.215,38.34-10.823,57.509c11.786,1.595,23.571,3.19,35.357,4.785
			c-2.425-18.199-4.851-36.398-7.276-54.598c-1.199-8.997-5.939-16.379-15.607-17.679c-8.389-1.127-17.847,4.103-19.75,12.893
			c-5.682,26.25-13.062,52.08-22.105,77.369c11.786,1.595,23.571,3.19,35.357,4.785c-1.295-16.982-2.674-34.223-7.794-50.553
			c-2.289-7.3-9.319-13.575-17.357-13.215c-8.633,0.387-14.185,5.517-17.357,13.215c0.029-0.07-1.774,4.264-1.241,3.004
			c0.619-1.465-1.124,2.607-1.288,2.984c-1.237,2.845-2.497,5.679-3.782,8.502c-2.699,5.928-5.506,11.807-8.419,17.634
			c-5.687,11.378-11.792,22.537-18.253,33.494c10.966,4.623,21.933,9.247,32.9,13.87c2.504-11.424,5.861-22.762,10.481-33.522
			c-0.76,1.771-0.17,0.435,0.279-0.543c0.735-1.599,1.461-3.198,2.225-4.783c1.145-2.376,2.341-4.728,3.583-7.055
			c2.9-5.434,6.076-10.703,9.462-15.848c-11.181-3.028-22.362-6.057-33.542-9.085c0.815,16.695,0.872,33.415,0.082,50.112
			c-0.387,8.182-0.968,16.356-1.749,24.51c-0.375,3.914-0.793,7.824-1.257,11.729c-0.232,1.952-0.471,3.904-0.73,5.853
			c0.208-1.537,0.156-1.185-0.154,1.059c-0.185,1.298-0.374,2.594-0.569,3.891c-1.146,7.729,0.684,16.318,8.272,20.328
			c6.674,3.526,16.561,3.402,21.813-2.815c7.321-8.665,15.22-16.809,23.739-24.303c1.964-1.728,3.957-3.422,5.98-5.081
			c1.124-0.921,2.258-1.831,3.4-2.729c0.978-0.769,0.913-0.72-0.193,0.149c0.465-0.349,0.93-0.698,1.395-1.047
			c4.716-3.412,9.463-6.737,14.379-9.86c-8.209-8.209-16.418-16.418-24.627-24.627c-2.148,4.551-4.556,8.954-7.315,13.165
			c-1.304,1.99-2.667,3.945-4.112,5.836c1.551-2.031,0.222-0.349-0.657,0.692c-0.853,1.011-1.723,2.007-2.613,2.985
			c-3.205,3.52-6.65,6.824-10.302,9.877c0.049-0.041-3.646,2.825-1.906,1.552c1.756-1.285-2.098,1.449-2.024,1.397
			c-2.178,1.504-4.42,2.904-6.696,4.252c8.209,2.153,16.418,4.305,24.627,6.458c1.654,2.411,0.406,7.888,0.232,10.516
			c-0.35,0.385-0.699,0.77-1.049,1.155c0.5-0.585,1.025-1.148,1.573-1.688c1.544-1.603,3.163-3.139,4.798-4.649
			c1.841-1.7,3.726-3.351,5.656-4.95c0.857-0.71,1.723-1.411,2.598-2.1c-1.463,1.153-0.689,0.522,0.346-0.219
			c7.943-5.686,16.286-10.69,25.194-14.722c0.291-0.132,3.376-1.438,1.682-0.751c-1.697,0.688,1.43-0.536,1.725-0.649
			c0.963-0.368,5.082-2.407,5.972-1.836c-0.322-0.206-3.819,0.347-1.016,0.394c-0.825-0.088-1.65-0.176-2.475-0.264
			c-2.462-1.933-4.925-3.867-7.387-5.8c-0.48-2.863-0.96-5.726-1.44-8.589c-0.131,0.466-0.261,0.932-0.392,1.398
			c-0.559,1.238-0.862,2.715-1.317,4.008c-0.373,1.06-0.813,2.101-1.174,3.165c-0.905,2.665,1.1-2.155-0.147,0.367
			c-1.124,2.273-2.163,4.572-3.38,6.799c-1.079,1.974-2.225,3.914-3.436,5.81c-0.757,1.186-1.542,2.353-2.349,3.505
			c-0.33,0.471-2.599,3.509-0.714,1.093c10.028,2.648,20.057,5.295,30.085,7.943c-2.516-8.008-5.032-16.015-7.549-24.023
			c-3.036-9.66-5.256-19.464-14.234-25.453c-7.541-5.029-17.71-3.971-26.258-3.137c-9.098,0.888-18.195,2.297-27.053,4.58
			c-16.589,4.276-36.7,10.293-43.919,27.399c-3.397,8.05-3.362,17.177-3.072,25.791c0.318,9.456,1.516,18.894,3.17,28.204
			c1.929,10.861,17.498,17.135,26.442,10.757c26.125-18.63,52.819-37.493,74.174-61.682c20.219-22.903,33.588-49.998,49.468-75.822
			c2.231-3.627,4.521-7.219,6.906-10.746c1.039-1.537,2.097-3.062,3.174-4.572c0.461-0.646,0.924-1.291,1.393-1.932
			c-0.052,0.072,2.78-3.709,1.453-1.98c-1.201,1.565,0.41-0.509,0.545-0.675c0.666-0.82,1.328-1.642,2.004-2.453
			c1.352-1.623,2.738-3.218,4.159-4.781c2.858-3.143,5.87-6.129,9.004-8.995c-10.028-5.838-20.057-11.675-30.085-17.513
			c-6.155,21.576-9.778,43.735-15.032,65.527c-2.323,9.635-4.987,19.198-8.357,28.524c-0.761,2.107-1.581,4.189-2.387,6.279
			c-1.921,4.983,0.901-1.781-0.459,1.11c-0.475,1.009-0.909,2.039-1.379,3.051c-2.108,4.538-4.429,8.976-7.001,13.269
			c-1.139,1.901-2.324,3.771-3.563,5.608c-0.773,1.147-1.588,2.264-2.376,3.401c-0.32,0.461-2.094,2.663-0.201,0.319
			c-3.192,3.951-6.608,7.692-10.317,11.166c-1.692,1.585-3.439,3.112-5.223,4.593c-0.891,0.74-1.791,1.475-2.707,2.184
			c2.198-1.702-0.155,0.077-0.522,0.335c-4.29,3.021-8.614,5.955-13.085,8.705c-8.682,5.338-17.593,10.385-26.596,15.161
			c-2.069,1.097-4.151,2.166-6.26,3.184c-1.051,0.507-2.131,0.961-3.174,1.484c-2.879,1.444,3.786-1.298-1.323,0.547
			c-2.168,0.783-4.323,1.573-6.537,2.217c-1.096,0.319-2.202,0.612-3.312,0.876c-0.763,0.181-5.64,1.053-1.928,0.553
			c-2.536,0.341-5.139,0.405-7.693,0.306c-0.544-0.021-3.948-0.19-1.319,0.006c2.645,0.197-1.93-0.423-2.524-0.569
			c-2.084-0.51-4.117-1.176-6.113-1.963c3.559,1.403,1.1,0.463,0.398,0.036c-1.221-0.743-2.518-1.359-3.73-2.125
			c-0.803-0.508-1.566-1.102-2.377-1.598c3.343,2.045-0.104-0.147-0.809-0.787c-1.771-1.611-3.37-3.369-4.913-5.194
			c0.462,0.546,1.937,2.937,0.266,0.197c-0.62-1.017-1.281-2.002-1.865-3.042c-0.584-1.04-1.106-2.103-1.627-3.176
			c1.341,2.767,0.307,0.588-0.222-1.044c-2.361-7.288-9.266-13.577-17.357-13.215c-7.2,0.323-16.254,5.281-17.357,13.215
			c-2.199,15.809,1.574,31.948,14.253,42.664c8.244,6.968,22.686,7.495,28.27-3.643c5.657-11.283,8.743-22.471,10.316-34.931
			c1.116-8.84-7.712-16.618-15.607-17.679c-8.146-1.095-18.181,4.057-19.75,12.893c-3.141,17.687-7.89,34.988-14.218,51.799
			c-2.56,6.801,1.584,17.221,8.272,20.328c22.692,10.542,47.018,12.408,71.618,9.205c12.318-1.604,25.195-3.358,36.956-7.522
			c12.148-4.3,22.3-11.318,30.434-21.318c14.876-18.289,29.047-38.762,39.386-59.975c10.997-22.562,16.908-47.05,25.039-70.689
			c9.388-27.295,18.627-49.688,30.528-74.96c-11.181-3.028-22.362-6.057-33.542-9.085c0.449,6.185,0.473,12.37,0.044,18.557
			c-0.214,3.082-0.506,6.164-0.911,9.226c0.109-0.821,0.463-2.954-0.137,0.738c-0.299,1.84-0.596,3.68-0.925,5.516
			c-2.209,12.333-5.301,24.484-8.067,36.698c-3.041,13.428-5.213,26.906-6.95,40.562c-0.442,3.474,0.633-4.24-0.221,1.609
			c-0.177,1.215-0.349,2.43-0.537,3.643c-0.469,3.025-0.99,6.043-1.614,9.04c-0.623,2.989-1.344,5.963-2.217,8.889
			c-0.35,1.172-0.719,2.341-1.116,3.498c-0.379,1.105-0.78,2.202-1.203,3.291c-0.717,1.807-0.862,2.166-0.435,1.076
			c1.005-2.214-1.454,2.943-1.286,2.604c-0.518,1.042-1.053,2.076-1.603,3.102c-1.378,2.57-2.857,5.085-4.403,7.557
			c-3.266,5.224-6.864,10.235-10.575,15.151c-0.418,0.554-2.714,3.551-0.941,1.256c-0.718,0.929-1.443,1.852-2.167,2.777
			c-1.684,2.151-3.369,4.303-5.078,6.434c-3.448,4.298-7.002,8.522-10.903,12.42c-1.655,1.653-3.4,3.188-5.144,4.742
			c-3.614,3.219,2.883-1.57-1.239,0.9c-0.87,0.521-1.693,1.119-2.563,1.641c-1.079,0.647-2.274,1.144-3.332,1.813
			c-2.294,1.45,3.81-1.089-0.608,0.25c-0.986,0.299-1.951,0.633-2.947,0.893c-1.15,0.299-2.312,0.548-3.483,0.747
			c1.558-0.19,1.683-0.223,0.375-0.098c-12.105,0.118-24.299-0.454-36.379,0.63c-28.432,2.55-55.843,11.021-80.49,25.513
			c-6.244,3.672-9.546,10.848-8.594,17.935c0.986,7.337,5.989,12.582,12.893,14.964c30.165,10.409,62.646,2.742,92.096-6.334
			c14.669-4.52,29.163-9.608,43.439-15.247c15.138-5.98,31.484-11.52,44.063-22.199c12.375-10.505,17.394-26.569,22.021-41.556
			c4.468-14.468,7.957-29.218,11.052-44.034c6.145-29.427,10.708-59.203,18.362-88.3c2.038-7.745,4.286-15.437,6.824-23.033
			c1.085-3.246,2.223-6.474,3.418-9.681c0.596-1.6,1.208-3.195,1.835-4.784c0.229-0.58,2.845-6.774,1.445-3.577
			c6.38-14.57,14.131-28.425,23.722-41.133c5.695-7.546,1.449-20.45-6.458-24.627C493.627,482.24,484.551,485.647,478.472,493.702
			L478.472,493.702z"/>
	</g>
</g>
<g>
	<g>
		<path fill="#F29120" d="M467.146,535.274c11.819,2.988,20.358-2.673,27.615-11.243c1.025-1.211,2.148-2.259,3.26-3.378
			c1.579-1.31,1.597-1.349,0.054-0.117c0.854-0.622,1.711-1.238,2.573-1.849c3.57-2.581,7.239-5.137,10.401-8.215
			c11.647-11.341,16.249-27.341,19.508-42.766c1.941-9.188-2.701-19.894-12.572-22.142c-9.033-2.057-20.061,2.72-22.142,12.572
			c-1.156,5.474-2.35,10.957-4.114,16.273c-0.398,1.199-0.857,2.374-1.289,3.561c-0.72,1.981,1.348-2.447-0.319,0.493
			c-0.732,1.291-1.47,2.578-2.206,3.866c-1.618,2.833,1.118-0.875-0.278,0.511c-0.874,0.867-1.729,1.812-2.582,2.699
			c-2.253,2.345,0.934-0.484-0.65,0.667c-3.166,2.301-6.347,4.557-9.406,7.004c-2.064,1.651-3.992,3.332-5.693,5.365
			c-0.867,1.036-1.824,2.145-2.616,3.236c-0.316,0.343-0.633,0.686-0.949,1.03c3.024-2.435,6.683-3.195,10.977-2.281
			c-9.115-2.304-19.952,2.957-22.142,12.572C452.445,522.478,457.379,532.805,467.146,535.274L467.146,535.274z"/>
	</g>
</g>
<g>
	<g>
		<path fill="#F29120" d="M471.204,480.643c-2.352,5.463-4.76,10.916-7.66,16.116c-1.442,2.586-3.043,5.038-4.705,7.485
			c2.264-3.334-0.143,0.154-0.791,0.88c-1.111,1.245-2.284,2.43-3.526,3.545c-0.524,0.482-1.064,0.945-1.621,1.389
			c1.579-1.213,1.834-1.451,0.763-0.715c-1.281,0.616-2.465,1.508-3.745,2.156c-1.027,0.499-0.867,0.438,0.482-0.183
			c-0.805,0.296-1.618,0.565-2.44,0.808c-1.642,0.509-3.305,0.937-4.973,1.349c-7.536,1.864-15.11,3.588-22.664,5.378
			c4.623,10.966,9.247,21.933,13.87,32.899c6.275-2.986,12.55-5.972,18.824-8.958c8.074-3.842,10.578-14.863,7.365-22.477
			c-3.627-8.595-12.308-12.195-21.235-10.422c-13.53,2.686-27.06,5.373-40.591,8.059c4.623,10.966,9.247,21.933,13.87,32.899
			c4.528-2.572,9.174-4.886,13.949-6.964c-1.756,0.764-0.588,0.245,0.498-0.181c1.346-0.528,2.69-1.056,4.043-1.565
			c2.439-0.918,4.893-1.795,7.357-2.644c9.895-3.41,19.939-6.366,29.848-9.733c11.065-3.759,23.144-7.412,32.163-15.078
			c8.74-7.429,13.522-19.845,18.875-29.751c4.475-8.281,2.333-19.983-6.458-24.627c-8.387-4.431-19.848-2.389-24.627,6.458
			c-2.433,4.503-4.866,9.006-7.299,13.509c-1.107,2.048-2.178,4.123-3.388,6.112c-0.501,0.823-2.652,2.902-0.697,1.151
			c-1.178,1.056-1.708,1.077-0.221,0.305c-0.908,0.472-5.958,2.918-3.22,1.764c-2.405,1.013-4.854,1.931-7.302,2.833
			c-4.636,1.709-9.322,3.279-14.021,4.804c-19.642,6.373-39.608,12.263-57.669,22.522c-7.81,4.436-10.776,14.395-7.365,22.478
			c3.627,8.595,12.308,12.194,21.235,10.422c13.53-2.687,27.06-5.373,40.591-8.059c-4.623-10.966-9.247-21.933-13.87-32.9
			c-6.275,2.986-12.55,5.972-18.824,8.958c-8.073,3.842-10.578,14.863-7.365,22.478c3.535,8.376,12.403,12.514,21.235,10.422
			c17.357-4.112,34.921-6.727,49.008-18.507c11.167-9.338,17.75-23.154,23.387-36.245c3.713-8.623,2.851-19.71-6.458-24.627
			C488.082,470.092,475.18,471.41,471.204,480.643L471.204,480.643z"/>
	</g>
</g>
<g>
	<g>
		<path fill="#F29120" d="M986,250c9.415,0,18.435-8.279,18-18c-0.437-9.752-7.909-18-18-18c-9.415,0-18.435,8.279-18,18
			C968.437,241.752,975.909,250,986,250L986,250z"/>
	</g>
</g>
<g>
	<g>
		<path fill="#F29120" d="M826,255c7.721,0,7.734-12,0-12C818.279,243,818.266,255,826,255L826,255z"/>
	</g>
</g>
<g>
	<g>
		<path fill="#FAEE4F" d="M252.377,766.01c43.56-18.785,74.117-61.531,79.209-108.466c-4,0-8,0-12,0
			c-3.259,35.092-20.545,67.857-47.103,90.892c3.141,0.405,6.282,0.81,9.423,1.214c-6.096-12.952-6.463-28.438-0.782-41.613
			c-3.454,0-6.908,0-10.362,0c4.156,5.622,6.652,11.589,7.744,18.495c0.863,5.454,8.439,5.358,10.967,1.433
			c3.596-5.585,7.192-11.17,10.788-16.755c-3.655-0.478-7.311-0.956-10.966-1.433c1.463,6.212,2.926,12.423,4.389,18.635
			c1.105,4.69,8.851,6.233,10.966,1.433c11.653-26.434,18.258-54.534,19.36-83.418c-4,0-8,0-12,0
			c0.583,4.856,3.892,8.318,9.038,7.882c5.366-0.455,7.913-5.247,8.358-10.132c1.24-13.598,0.71-27.598,1.043-41.252
			c0.682-27.906,1.364-55.812,2.047-83.717c-3.929,0.532-7.857,1.063-11.786,1.595c2.088,12.18,4.176,24.36,6.264,36.541
			c1.13,6.593,12.49,5.146,11.786-1.595c-4.749-45.426-23.159-88.296-52.943-122.942c-2.828,2.828-5.657,5.657-8.485,8.485
			c18.383,16.113,31.525,37.036,37.884,60.652c1.427,5.3,10.713,6.117,11.571,0c6.061-43.184,12.182-86.637,11.439-130.353
			c-0.366-21.517-2.52-43.004-6.888-64.085c-4.112-19.849-9.79-39.348-13.459-59.293c-4.108-22.33-5.13-45.208,2.8-66.831
			c-3.857-1.063-7.714-2.127-11.571-3.19c-12.298,63.978-24.305,133.453,4.661,194.835c2.458,5.209,9.248,2.817,10.966-1.433
			c1.58-3.908,3.16-7.816,4.74-11.724c-3.929-0.532-7.857-1.063-11.786-1.595c-0.249,33.527,0.946,67.041,3.583,100.465
			c0.496,6.287,10.402,8.683,11.786,1.595c2.924-14.981,5.848-29.962,8.772-44.943c1.504-7.708-8.708-10.277-11.571-3.19
			c-14.766,36.541-9.009,77.031,1.319,113.929c2.639,9.427,5.359,18.963,8.8,28.134c2.92,7.783,7.198,14.87,15.124,18.29
			c7.988,3.447,16.798,2.557,25.187,1.462c9.718-1.269,19.361-3.015,28.886-5.33c21.703-5.274,42.674-13.37,62.426-23.78
			c-2.424-3.141-4.847-6.282-7.271-9.423c-29.022,36.534-67.51,65.027-111.196,81.541c2.532,1.929,5.063,3.857,7.595,5.786
			c-1.029-15.052,3.281-29.256,12.362-41.292c-3.454-2.019-6.908-4.038-10.362-6.057c-11.525,17.471-21.78,35.71-30.717,54.636
			c-2.693,5.703,4.698,12.848,9.423,7.271c11.339-13.384,19.032-29.268,21.929-46.61c1.056-6.323-7.389-10.956-10.966-4.623
			c-2.942,5.208-5.884,10.415-8.826,15.623c3.727,1.009,7.454,2.019,11.181,3.028c-1.311-9.891,11.888-10.286,18.557-10.01
			c8.788,0.364,17.136,0.445,25.5-2.689c15.462-5.794,27.45-17.602,38.643-29.324c-3.343-1.946-6.686-3.892-10.028-5.838
			c-13.313,33.517-37.912,60.789-62.844,86.168c-3.143,3.2-6.306,6.379-9.474,9.554c-0.789,0.791-1.579,1.582-2.369,2.372
			c-1.521,1.044-1.34,1.323,0.542,0.836c-1.142-1.846-2.264-3.701-3.322-5.598c-2.194-3.936-4.351-8.12-5.017-12.637
			c-0.693-4.7,0.738-9.115,1.83-13.625c4.133-17.068,0.334-34.114-10.884-47.662c-3.6-4.347-9.913-0.447-10.243,4.243
			c-1.342,19.064,1.758,38.21,9.134,55.842c2.315,5.535,9.327,5.794,11.571,0c7.375-19.041,10.703-39.418,9.867-59.818
			c-0.263-6.431-10.472-8.548-11.786-1.595c-2.303,12.191-4.606,24.381-6.908,36.572c3.656-0.478,7.311-0.956,10.966-1.433
			c-16.066-28.763-22.371-61.34-31.328-92.708c-9.119-31.933-22.451-61.389-43.506-87.286c-4.267-5.249-10.758,0.719-10.028,5.838
			c5.96,41.802,26.716,79.123,41.281,118.22c7.248,19.455,13.148,39.722,14.068,60.577c1.001,22.697-4.279,44.831-12.224,65.959
			c-9.666,25.704-22.84,50.06-35.074,74.598c-2.275,4.563,1.488,10.257,6.776,8.814c18.792-5.127,37.103-11.871,54.727-20.171
			c16.084-7.574,32.798-16.168,45.148-29.262c24.843-26.34,21.31-63.871,16.789-96.931c-0.747-5.464-8.505-5.345-10.966-1.433
			c-7.264,11.544-14.529,23.089-21.793,34.633c-2.166,3.443-14.361,28.048-20.25,21.43c-4.232-4.755-11.208,0.368-10.028,5.838
			c8.377,38.86,48.552,54.504,82.124,65.604c7.349,2.43,10.5-9.155,3.19-11.571c-29.525-9.762-66.324-22.81-73.743-57.223
			c-3.343,1.946-6.686,3.892-10.028,5.838c4.53,5.091,12.038,5.909,18.048,3.044c6.349-3.026,10.008-9.355,13.608-15.077
			c9.745-15.486,19.49-30.973,29.234-46.459c-3.655-0.478-7.311-0.956-10.966-1.433c4.07,29.763,7.65,64.68-15.999,87.578
			c-11.807,11.432-27.322,18.996-42.085,25.84c-16.178,7.501-33.001,13.492-50.199,18.185c2.259,2.938,4.517,5.876,6.776,8.814
			c21.38-42.88,47.642-87.568,49.019-136.747c1.212-43.301-18.298-83.055-34.515-122.046c-9.367-22.521-17.887-45.547-21.345-69.806
			c-3.343,1.946-6.686,3.892-10.028,5.838c20.869,25.668,33.065,55.364,41.82,86.978c8.534,30.816,15.4,62.412,31.137,90.587
			c2.384,4.268,9.992,3.728,10.966-1.433c2.303-12.19,4.606-24.381,6.908-36.572c-3.929-0.532-7.857-1.063-11.786-1.595
			c0.797,19.465-2.403,38.464-9.439,56.628c3.857,0,7.714,0,11.571,0c-7.019-16.781-9.982-34.504-8.705-52.652
			c-3.414,1.414-6.828,2.828-10.243,4.243c4.715,5.694,7.807,12.754,8.84,20.08c1.128,7.996-1.194,14.9-2.667,22.622
			c-1.524,7.99-0.352,15.306,2.934,22.698c2.497,5.616,6.107,14.418,12.231,16.894c7.578,3.063,13.104-4.217,17.816-8.953
			c5.547-5.576,11.065-11.182,16.477-16.888c10.762-11.347,21.078-23.122,30.387-35.7c10.416-14.074,19.108-29.171,25.576-45.455
			c2.272-5.72-6.117-9.934-10.028-5.838c-11.687,12.239-25.582,27.112-43.514,28.699c-10.03,0.888-20.257-2.085-29.839,2.19
			c-7.587,3.384-14.02,10.88-12.862,19.621c0.72,5.433,7.95,8.748,11.181,3.028c2.942-5.208,5.884-10.415,8.826-15.623
			c-3.655-1.541-7.311-3.082-10.966-4.623c-2.548,15.256-8.818,29.482-18.843,41.315c3.141,2.424,6.282,4.847,9.423,7.271
			c8.938-18.926,19.192-37.165,30.717-54.636c4.344-6.586-5.832-12.06-10.362-6.057c-10.202,13.521-15.155,30.46-14.001,47.349
			c0.242,3.535,3.692,7.261,7.595,5.786c45.6-17.237,86.141-46.42,116.492-84.627c4.101-5.162-0.897-12.783-7.271-9.423
			c-15.69,8.269-32.113,14.925-49.165,19.817c-8.614,2.471-17.354,4.501-26.176,6.077c-7.825,1.397-16.147,3.081-24.136,2.527
			c-8.4-0.583-12.365-5.818-15.025-13.295c-2.921-8.213-5.422-16.617-7.805-24.999c-4.819-16.951-8.735-34.29-9.967-51.906
			c-1.372-19.625,0.756-39.053,8.159-57.374c-3.857-1.063-7.714-2.127-11.571-3.19c-2.924,14.981-5.848,29.962-8.772,44.943
			c3.929,0.532,7.857,1.063,11.786,1.595c-2.637-33.424-3.832-66.938-3.583-100.465c0.054-7.232-9.386-7.531-11.786-1.595
			c-1.58,3.908-3.16,7.816-4.74,11.724c3.656-0.478,7.311-0.956,10.966-1.433c-27.398-58.058-15.059-125.205-3.452-185.589
			c1.464-7.615-8.909-10.451-11.571-3.19c-14.235,38.812-1.558,79.987,7.507,118.409c9.967,42.247,11.241,84.755,7.587,127.899
			c-2.105,24.852-5.521,49.563-8.987,74.254c3.857,0,7.714,0,11.571,0c-6.859-25.471-21.125-48.552-40.971-65.947
			c-5.837-5.117-13.523,2.626-8.485,8.485c27.541,32.037,45.034,72.423,49.428,114.456c3.929-0.532,7.857-1.063,11.786-1.595
			c-2.088-12.18-4.176-24.36-6.264-36.541c-1.176-6.859-11.626-4.937-11.786,1.595c-0.52,21.262-1.04,42.523-1.559,63.785
			c-0.26,10.631-0.52,21.262-0.78,31.892c-0.13,5.315-0.26,10.631-0.39,15.946c-0.065,2.658-0.13,5.315-0.195,7.973
			c-0.032,1.329-0.065,2.658-0.097,3.987c-0.517,2.523,1.108,2.592,4.875,0.206c0.586,1.414,1.172,2.828,1.757,4.243
			c-0.033-0.271-0.065-0.541-0.098-0.812c-0.9-7.491-11.698-7.921-12,0c-1.016,26.632-6.963,52.958-17.721,77.362
			c3.656,0.478,7.311,0.956,10.967,1.433c-1.463-6.212-2.926-12.423-4.389-18.635c-1.237-5.253-8.295-5.582-10.966-1.433
			c-3.596,5.585-7.192,11.17-10.788,16.755c3.656,0.478,7.311,0.956,10.966,1.433c-1.23-7.776-4.273-15.03-8.954-21.361
			c-2.33-3.152-8.381-4.594-10.362,0c-7.536,17.478-7.337,36.475,0.782,53.726c1.759,3.737,6.761,3.524,9.423,1.214
			c29.044-25.192,47.07-61.181,50.618-99.377c0.717-7.725-11.178-7.574-12,0c-4.658,42.932-33.821,81.094-73.266,98.104
			C239.249,758.698,245.353,769.039,252.377,766.01L252.377,766.01z"/>
	</g>
</g>
<g>
	<g>
		<path fill="#FAEE4F" d="M382.844,585.49c-11.869,23.77-23.738,47.539-35.606,71.309c-3.423,6.855,6.534,12.844,10.362,6.057
			c14.05-24.912,25.767-51.069,35.07-78.114c-3.857-1.063-7.714-2.127-11.571-3.19c-0.375,2.613-1.041,4.724-2.819,6.712
			c3.343,1.946,6.686,3.892,10.028,5.838c2.989-10.033,9.342-18.385,18.234-23.916c-2.736-2.736-5.473-5.473-8.209-8.209
			c-5.335,9.838-17.119,11.007-27.187,10.125c-11.821-1.035-24.189-3.356-35.49-6.98c-4.303-1.38-10.239-3.014-13.51-6.315
			c-0.176-0.178-1.697-2.313-1.671-2.316c-0.207,0.293-0.413,0.587-0.62,0.88c-0.926,0.774-0.864,1.092,0.184,0.954
			c0.144,0.15,1.958,0.611,2.402,0.834c1.436,0.724,2.586,1.832,3.674,2.99c6.867,7.301,11.066,18.593,14.63,27.795
			c8.177,21.113,12.419,43.618,12.46,66.258c0.02,11.032-0.902,22.064-2.924,32.911c-0.982,5.27-2.194,10.496-3.642,15.658
			c0.054-0.191-1.037,3.16-0.946,3.252c1.065-0.26,2.13-0.52,3.195-0.781c-0.829-0.779-1.635-1.582-2.419-2.406
			c-2.003-2.107-3.834-4.352-5.46-6.762c-2.967-4.398-4.946-10.975-10.907-11.946c-6.419-1.046-11.29,5.898-15.398,9.831
			c-10.91,10.446-21.821,20.891-32.731,31.337c2.828,2.828,5.657,5.657,8.485,8.485c8.069-8.222,18.537-12.692,29.428-15.917
			c5.218-1.545,10.704-3.327,16.091-4.148c2.036-0.31,2.413-0.649,2.833,1.178c0.451,1.959-1.011,5.055-1.791,6.754
			c3.656,1.541,7.311,3.082,10.966,4.623c2.098-11.81,5.34-23.3,9.725-34.464c-3.655,0.478-7.311,0.956-10.966,1.433
			c1.56,2.784,2.732,5.555,3.641,8.609c1.979,6.643,11.367,5.096,11.786-1.595c1.266-20.231,2.749-41.23,13.652-58.913
			c-3.727-1.009-7.454-2.019-11.181-3.028c-0.454,21.051-5.639,41.874-15.535,60.495c-2.265,4.262-4.593,8.998-8.67,11.793
			c-4.112,2.819-9.356,3.862-14.068,5.26c-11.37,3.374-22.741,6.749-34.111,10.123c2.259,2.938,4.517,5.876,6.776,8.814
			c10.454-13.737,22.547-26.152,35.793-37.206c-3.414-1.414-6.828-2.828-10.243-4.243c-0.257,13.031-3.315,25.676-9.171,37.332
			c2.736-0.718,5.473-1.435,8.209-2.153c-4.942-3.002-9.111-6.81-12.403-11.58c-2.922-4.235-9.364-3.696-10.967,1.433
			c-5.142,16.461,11.629,28.008,26.277,27.634c17.61-0.45,36.126-8.577,51.506-16.569c-2.736-2.736-5.473-5.473-8.209-8.209
			c-5.526,8.613-12,16.384-19.403,23.446c3.343,1.946,6.686,3.892,10.028,5.838c4.495-31.051,10.56-61.843,18.177-92.279
			c1.876-7.494-9.433-10.622-11.571-3.19c-2.214,7.693-3.093,15.598-2.531,23.585c0.359,5.104,6.339,8.018,10.243,4.243
			c9.364-9.056,16.106-20.184,19.931-32.627c1.989-6.469-7.706-10.619-10.967-4.623c-8.289,15.242-9.602,32.59-15.627,48.625
			c-5.244,13.957-15.891,24.137-30.128,28.633c-13.339,4.212-28.134,3.604-40.943-2.114c-7.543-3.367-15.538-7.828-24.016-5.033
			c-3.631,1.197-6.07,3.768-8.907,6.158c-3.639,3.065-7.03,0.432-10.563-1.86c-14.858-9.642-23.131-27.325-22.144-44.817
			c0.375-6.652-10.618-8.311-11.786-1.595c-5.081,29.222,10.074,60.187,37.215,72.888c5.65,2.644,13.031-4.89,7.271-9.423
			c-11.777-9.269-23.554-18.538-35.331-27.807c-4.095-3.223-12.445-0.446-10.028,5.838c4.313,11.216,16.023,15.902,27.459,13.773
			c13.573-2.527,22.09-15.105,28.979-25.926c-3.141,0.405-6.282,0.81-9.423,1.214c1.364,1.587,2.728,3.174,4.091,4.761
			c1.96,2.281,6.553,2.389,8.485,0c21.426-26.493,39.489-55.417,53.604-86.439c3.135-6.89-6.57-12.953-10.362-6.057
			c-8.536,15.529-15.515,31.852-20.859,48.747c-2.021,6.388,7.945,10.788,10.966,4.623c6.41-13.078,11.468-26.714,14.987-40.85
			c1.892-7.6-8.934-10.351-11.571-3.19c-11.081,30.094-20.483,60.767-28.169,91.901c3.857,0,7.714,0,11.571,0
			c-2.41-8.292,6.861-17.431,11.097-23.794c4.977-7.475,9.669-15.14,14.065-22.97c9.05-16.122,16.774-32.949,23.326-50.233
			c-3.929-0.532-7.857-1.063-11.786-1.595c-1.649,19.788-5.488,39.239-11.306,58.22c-1.963,6.404,7.881,10.768,10.966,4.623
			c5.387-10.728,11.519-21.016,18.392-30.858c-3.727-1.009-7.454-2.019-11.181-3.028c0.647,6.585-0.556,12.427-4.01,18.093
			c-4.03,6.612,6.343,12.648,10.362,6.057c4.458-7.313,6.488-15.607,5.649-24.15c-0.588-5.989-7.653-8.08-11.181-3.028
			c-6.873,9.842-13.005,20.13-18.392,30.858c3.656,1.541,7.311,3.082,10.967,4.623c6.131-20.003,9.998-40.564,11.734-61.41
			c0.601-7.209-9.557-7.474-11.786-1.595c-7.035,18.559-15.633,36.487-25.696,53.596c-4.861,8.263-10.098,16.274-15.557,24.153
			c-5.297,7.646-10.002,16.113-7.236,25.63c1.612,5.546,10.121,5.875,11.571,0c7.686-31.135,17.088-61.807,28.169-91.901
			c-3.857-1.063-7.714-2.127-11.571-3.19c-3.27,13.137-7.817,25.825-13.777,37.984c3.655,1.541,7.311,3.082,10.966,4.623
			c5.042-15.939,11.597-31.231,19.65-45.88c-3.454-2.019-6.908-4.038-10.362-6.057c-13.666,30.034-30.973,58.347-51.728,84.011
			c2.828,0,5.657,0,8.485,0c-1.364-1.587-2.728-3.174-4.091-4.761c-2.627-3.057-7.491-1.821-9.423,1.214
			c-4.631,7.273-9.956,16.306-18.452,19.543c-5.059,1.928-13.776,1.399-16.053-4.524c-3.343,1.946-6.686,3.892-10.028,5.838
			c11.777,9.269,23.554,18.538,35.33,27.807c2.424-3.141,4.847-6.282,7.271-9.423c-21.97-10.281-35.908-35.138-31.701-59.336
			c-3.929-0.532-7.857-1.063-11.786-1.595c-1,17.714,6.125,35.538,18.878,47.865c5.915,5.717,14.732,12.734,23.41,12.534
			c4.343-0.1,7.798-2.44,10.903-5.237c4.241-3.82,6.978-4.096,12.391-1.991c8.094,3.148,15.266,6.938,23.979,8.291
			c7.959,1.236,15.884,1.15,23.823-0.207c15.775-2.695,30.536-11.255,39.666-24.533c12.416-18.057,11.341-41.321,21.64-60.257
			c-3.656-1.541-7.311-3.082-10.966-4.623c-3.232,10.512-8.946,19.693-16.845,27.332c3.414,1.414,6.828,2.828,10.243,4.243
			c-0.493-7.007,0.159-13.641,2.103-20.395c-3.857-1.063-7.714-2.127-11.571-3.19c-7.617,30.436-13.682,61.228-18.177,92.279
			c-0.818,5.65,5.333,10.316,10.028,5.838c8.122-7.747,15.219-16.428,21.28-25.874c3.411-5.317-3.162-10.832-8.209-8.209
			c-11.507,5.979-23.683,10.662-36.333,13.584c-5.572,1.287-12.352,2.487-17.791-0.01c-4.254-1.953-7.5-6.382-6.03-11.087
			c-3.655,0.478-7.311,0.956-10.966,1.433c4.489,6.504,9.943,11.775,16.708,15.885c2.642,1.605,6.769,0.714,8.209-2.152
			c6.82-13.574,10.509-28.19,10.809-43.388c0.11-5.586-6.457-7.402-10.243-4.243c-14.089,11.758-26.562,25.039-37.669,39.635
			c-3.264,4.289,2.122,10.195,6.776,8.814c12.633-3.749,25.283-7.446,37.901-11.248c5.354-1.613,10.709-3.363,15.183-6.822
			c4.44-3.433,7.418-8.181,10.087-13.046c11.454-20.877,17.511-44.351,18.023-68.127c0.131-6.1-8.137-7.965-11.181-3.028
			c-12.031,19.513-13.892,42.633-15.29,64.97c3.929-0.532,7.857-1.063,11.786-1.595c-1.197-4.02-2.801-7.816-4.851-11.475
			c-2.74-4.892-9.185-3.102-10.966,1.433c-4.385,11.164-7.627,22.655-9.725,34.464c-1.093,6.15,7.912,11.277,10.967,4.623
			c2.794-6.086,5.279-13.879,1.582-20.168c-4.704-8.003-14.008-5.967-21.448-4.132c-16.539,4.078-33.312,9.429-45.543,21.891
			c-5.421,5.524,2.903,13.83,8.485,8.485c11.859-11.354,23.718-22.708,35.577-34.062c0.285-0.273,4.288-4.067,4.269-4.087
			c-1.048,0.212-2.095,0.424-3.143,0.635c0.525,1.009,1.079,2.003,1.66,2.981c1.714,2.884,3.683,5.615,5.795,8.22
			c3.888,4.794,9.547,11.854,16.554,9.269c5.57-2.055,6.616-9.025,7.922-14.045c1.848-7.103,3.231-14.309,4.233-21.578
			c1.924-13.963,2.4-28.081,1.24-42.134c-2.245-27.193-9.827-54.668-23.531-78.391c-4.963-8.591-16.403-21.362-27.621-14.818
			c-5.042,2.941-5.899,8.98-3.633,13.963c2.841,6.248,8.594,9.362,14.627,11.937c14.478,6.18,31.118,9.057,46.737,10.43
			c14.314,1.258,30.206-2.53,37.549-16.069c2.764-5.096-2.932-11.492-8.209-8.209c-11.547,7.183-19.865,18.052-23.749,31.088
			c-1.667,5.595,5.994,10.351,10.028,5.838c3.102-3.471,5.238-7.367,5.905-12.007c1.078-7.503-8.997-10.672-11.571-3.19
			c-8.974,26.087-20.309,51.219-33.86,75.248c3.454,2.019,6.908,4.038,10.362,6.057c11.869-23.77,23.738-47.539,35.606-71.309
			C396.645,584.657,386.298,578.572,382.844,585.49L382.844,585.49z"/>
	</g>
</g>
</svg>
