<?xml version="1.0" encoding="utf-8"?>
<!-- Generator: Adobe Illustrator 24.3.0, SVG Export Plug-In . SVG Version: 6.00 Build 0)  -->
<svg version="1.1" id="Layer_1" xmlns="http://www.w3.org/2000/svg" xmlns:xlink="http://www.w3.org/1999/xlink" x="0px" y="0px"
	 viewBox="0 0 595.276 841.89" enable-background="new 0 0 595.276 841.89" xml:space="preserve">
<g>
	<g>
		<path d="M753,258c7.721,0,7.734-12,0-12C745.279,246,745.266,258,753,258L753,258z"/>
	</g>
</g>
<g>
	<g>
		<path d="M260.371,330.155c8.796,0.993,15.368-6.996,17.016-14.853c1.693-8.068,1.063-16.995,1.058-25.19
			c-0.01-15.461-0.15-30.814,4.875-45.626c-7.714,0-15.428,0-23.143,0c2.324,9.655,4.649,19.31,6.973,28.964
			c2.073,8.608,3.105,18.752,7.28,26.623c5.339,10.063,16.456,10.793,26.453,12.117c8.723,1.155,17.72,2.438,26.532,2.311
			c10.466-0.151,18.337-4.513,24.483-12.759c4.912-6.59,8.887-13.878,12.16-21.404c3.541-8.141,6.43-16.483,8.181-25.198
			c1.901-9.464,2.087-19.492-7.301-25.106c-5.431-3.247-13.347-1.362-16.418,4.305c-14.899,27.495-30.509,63.049-9.79,92.079
			c3.76,5.268,10.464,7.788,16.418,4.305c5.206-3.045,8.09-11.115,4.305-16.418c-15.329-21.477-1.123-47.714,9.79-67.853
			c-5.473,1.435-10.946,2.87-16.418,4.305c1.818,1.087-4.676-3.926-3.097-5.412c-0.63,0.593-0.637,3.444-0.808,4.264
			c-0.651,3.116-1.434,6.202-2.346,9.252c-1.7,5.688-3.854,11.149-6.565,16.429c-2.341,4.559-5.181,10.004-8.391,13.608
			c-2.707,3.038-8.836,1.477-13.03,1.161c-6.09-0.458-12.182-1.062-18.223-1.972c-1.568-0.236-3.601-0.85-5.193-0.839
			c-1.613,0.011-1.835-1.22-0.38,0.95c2.068,3.083,0.392-0.884,0.151-1.819c-0.497-1.921-0.93-3.864-1.395-5.793
			c-3.409-14.16-6.819-28.321-10.228-42.481c-2.922-12.134-19.528-10.654-23.143,0c-4.28,12.617-5.448,26.07-5.678,39.322
			c-0.11,6.344-0.021,12.69-0.067,19.034c-0.022,3.016-0.069,6.032-0.188,9.046c-0.046,1.179-0.647,4.295-0.285,5.399
			c-0.928-2.831,9.441-4.41,6.412-4.752c-6.45-0.728-12,6.037-12,12C248.371,325.247,253.903,329.425,260.371,330.155
			L260.371,330.155z"/>
	</g>
</g>
<g>
	<g>
		<path d="M354.81,334.201c32.304,1.608,65.094,2.926,96.86-4.413c31.266-7.223,57.192-26.277,87.066-36.914
			c-4.517-5.876-9.034-11.752-13.552-17.628c-7.384,12.751-17.495,23.384-29.99,31.219c-13.055,8.187-1.023,28.961,12.113,20.723
			c15.922-9.984,29.175-23.553,38.6-39.829c4.947-8.543-3.376-21.251-13.552-17.628c-29.253,10.416-54.915,29.127-85.303,36.496
			c-30.102,7.3-61.584,5.499-92.243,3.973c-6.479-0.322-12,5.746-12,12C342.81,328.968,348.311,333.877,354.81,334.201
			L354.81,334.201z"/>
	</g>
</g>
<g>
	<g>
		<path d="M254.941,308.609c-13.904,12.066-28.794,22.855-44.58,32.33c-15.517,9.314-31.676,17.076-49.959,18.615
			c-19.974,1.681-40.338,0.326-60.356,0.037c-20.866-0.301-41.733-0.603-62.599-0.904c-15.449-0.223-15.456,23.777,0,24
			c33.697,0.487,67.396,1.131,101.095,1.452c16.31,0.155,32.936-0.502,48.565-5.603c14.76-4.817,28.482-12.434,41.564-20.687
			c15.221-9.602,29.652-20.477,43.241-32.269c4.897-4.25,4.355-12.616,0-16.971C267.054,303.751,259.851,304.349,254.941,308.609
			L254.941,308.609z"/>
	</g>
</g>
<g>
	<g>
		<path d="M21.464,376.158c-0.769,42.858-0.355,87.306,13.635,128.322c3.589,10.523,8.018,20.857,13.407,30.588
			c5.169,9.334,11.545,18.708,21.886,22.695c10.021,3.864,21.404,0.77,28.41-7.315c6.756-7.797,9.687-17.615,10.891-27.677
			c2.569-21.457-1.34-48.866,15.423-65.574c-6.686-1.765-13.371-3.53-20.057-5.295c3.764,12.906,7.529,25.813,11.293,38.719
			c3.657,12.539,7.598,28.615,23.474,29.596c6.991,0.432,13.503-2.849,17.074-8.989c2.93-5.038,3.521-11.322,5.052-16.859
			c3.312-11.981,7.995-23.333,13.99-34.215c-6.282,0.81-12.565,1.619-18.847,2.429c4.983,6.234,9.966,12.468,14.949,18.702
			c5.845,7.312,17.818,2.655,20.057-5.295c5.2-18.469,11.61-36.582,19.477-54.088c-7.311-0.956-14.622-1.911-21.933-2.867
			c1.675,10.379,9.085,22.419,20.966,22.009c7.176-0.248,11.942-4.609,16.71-9.43c4.406-4.456,8.813-8.912,13.219-13.368
			c10.871-10.994-6.089-27.974-16.971-16.971c-5.067,5.124-10.104,10.28-15.202,15.373c-3.926,3.922,1.461,0.289,3.87,0.691
			c2.55,1.81,3.267,2.172,2.152,1.085c-0.552-0.557-0.532-0.556,0.061,0.004c0.083-0.904-1.317-3.637-1.662-5.774
			c-1.589-9.844-17.83-11.997-21.933-2.867c-8.723,19.411-16.128,39.332-21.896,59.821c6.686-1.765,13.371-3.53,20.057-5.295
			c-4.983-6.234-9.966-12.468-14.949-18.702c-4.834-6.047-15.429-3.775-18.847,2.429c-4.904,8.901-9.101,18.204-12.543,27.768
			c-1.649,4.582-3.099,9.235-4.343,13.943c-0.623,2.356-1.147,4.731-1.711,7.1c-0.184,0.89-0.399,1.772-0.647,2.646
			c0.897-1.865,2.627-2.914,5.188-3.147c4.072,0.233,1.711,1.841,1.676-0.581c-0.02-1.37-1.014-3.547-1.415-4.917
			c-1.475-5.035-2.938-10.073-4.407-15.11c-2.938-10.073-5.876-20.146-8.814-30.22c-2.521-8.642-13.589-11.741-20.057-5.295
			c-14.76,14.712-19.073,35.142-20.533,55.201c-0.379,5.209-0.587,10.429-0.913,15.642c-0.326,5.22-0.669,10.156-1.482,13.628
			c-0.911,3.892-1.239,5.052-3.099,8.161c-1.13,1.889-0.685,1.128-0.287,0.619c-0.492,0.63-1.169,1.114-1.651,1.741
			c1.246-1.62-0.401,0.269-0.367,0.2c0.971-0.299,1.049-0.322,0.234-0.069c-0.831,0.209-0.733,0.252,0.294,0.129
			c-2.059,0.288-3.169-0.895-5.149-3.145c-2.755-3.129-4.776-7.164-6.776-10.865c-4.327-8.005-7.846-16.326-10.71-24.96
			c-5.814-17.528-9.097-35.798-10.727-54.165c-1.953-22.002-1.91-44.117-1.515-66.183C45.741,360.709,21.741,360.707,21.464,376.158
			L21.464,376.158z"/>
	</g>
</g>
<g>
	<g>
		<path d="M530.775,286.875c10.037,27.266,15.696,55.883,18.619,84.741c1.474,14.547,2.38,29.151,2.971,43.76
			c0.111,2.746,0.199,5.487,0.077,8.235c-0.058,1.301-0.126,2.613-0.295,3.904c0.251-1.911-0.395,1.793-0.42,1.897
			c-0.283,1.21-0.596,2.434-1.045,3.593c0.576-1.486-0.227,0.387-0.537,0.929c-0.28,0.508-0.59,0.998-0.93,1.468
			c0.581-0.787,0.59-0.876,0.028-0.268c0.144-0.124-1.1,0.622-0.111,0.242c4.92,2.794,9.841,5.588,14.761,8.381
			c-9.84-29.433-25.159-56.316-45.338-79.878c-5.572-6.506-18.595-3.392-20.057,5.295c-3.207,19.059-7.692,37.845-13.441,56.298
			c6.686-1.765,13.371-3.53,20.057-5.295c-14.103-13.918-25.224-30.044-33.485-48.051c-4.351-9.484-19.654-6.65-21.933,2.867
			c-3.629,15.153-7.259,30.307-10.888,45.46c6.686-1.765,13.371-3.53,20.057-5.295c-12.461-15.695-28.909-28.611-47.244-36.753
			c-10.126-4.497-26.3-12.092-33.427,1.189c-2.852,5.315-2.146,10.983-1.81,16.749c0.347,5.944,0.694,11.888,1.041,17.831
			c6.019-3.454,12.038-6.908,18.057-10.362c-13.213-9.633-26.425-19.265-39.638-28.898c-5.24-3.82-13.38-0.89-16.418,4.305
			c-3.552,6.074-0.948,12.589,4.305,16.418c13.213,9.633,26.425,19.265,39.638,28.898c7.272,5.301,18.557-1.789,18.057-10.362
			c-0.274-4.692-0.548-9.385-0.822-14.077c-0.128-2.19-0.256-4.38-0.383-6.569c-0.073-1.251-0.146-2.503-0.219-3.754
			c0.092-2.746-0.535-1.72-1.882,3.076c-1.765,1.029-3.53,2.057-5.295,3.086c-1.999-0.126-2.329-0.018-0.992,0.325
			c0.768,0.25,1.533,0.512,2.293,0.784c1.015,0.36,2.026,0.732,3.029,1.123c2.297,0.897,4.53,1.925,6.74,3.019
			c5.069,2.508,9.954,5.381,14.614,8.585c8.924,6.137,16.666,13.893,23.386,22.356c5.668,7.139,18.109,2.837,20.057-5.295
			c3.629-15.153,7.259-30.307,10.888-45.46c-7.311,0.956-14.622,1.911-21.933,2.867c9.05,19.726,21.795,37.668,37.238,52.909
			c6.58,6.493,17.383,3.287,20.057-5.295c5.748-18.453,10.234-37.239,13.441-56.298c-6.686,1.765-13.371,3.53-20.057,5.295
			c17.374,20.286,30.701,43.967,39.166,69.288c1.902,5.689,8.435,10.811,14.761,8.381c14.574-5.598,19.901-18.886,20.86-33.606
			c0.982-15.082-0.95-30.84-2.274-45.861c-2.953-33.491-8.531-66.912-20.18-98.556c-2.238-6.079-8.137-10.202-14.761-8.381
			C533.303,273.723,528.525,280.763,530.775,286.875L530.775,286.875z"/>
	</g>
</g>
<g>
	<g>
		<path d="M239.361,419.254c18.172,4.088,35.918-2.381,53.289-7.185c17.415-4.816,34.844-9.583,52.285-14.305
			c14.892-4.032,8.572-27.191-6.38-23.143c-16.172,4.379-32.335,8.796-48.485,13.255c-7.805,2.155-15.584,4.439-23.425,6.46
			c-6.829,1.761-13.884,3.354-20.904,1.774c-6.318-1.421-12.987,1.924-14.761,8.381
			C229.323,410.525,233.011,417.826,239.361,419.254L239.361,419.254z"/>
	</g>
</g>
<g>
	<g>
		<path d="M248.015,421.512c9.849,8.257,17.278,18.042,22.624,29.731c2.452,5.362,10.005,7.099,14.985,4.91
			c5.477-2.408,8.473-8.234,6.948-14.157c-1.197-4.65-1.678-9.355-1.12-14.156c0.212-1.824,0.64-3.641,1.125-5.414
			c0.282-1.029,0.886-2.429,1.009-3.314c0.362-2.596,3.504,0.615-2.484,1.7c-2.127,0-4.253,0-6.38,0
			c-1.327-0.216-2.046-3.76-1.972-1.979c0.045,1.093,0.589,2.634,0.828,3.679c0.673,2.947,1.728,5.776,3.243,8.401
			c6.282-4.847,12.565-9.695,18.847-14.542c0.072,0.046,0.144,0.091,0.216,0.137c0.546,2.019,1.092,4.038,1.638,6.057
			c-0.003-0.436-0.007-0.872-0.01-1.309c-0.546,2.019-1.092,4.038-1.638,6.057c0.194-0.281,0.388-0.563,0.582-0.844
			c-1.435,1.435-2.87,2.87-4.305,4.305c0.309-0.143,0.618-0.285,0.927-0.428c-2.019,0.546-4.038,1.092-6.057,1.638
			c-2.822-1.276-3.54-1.447-2.152-0.516c0.581,0.426,1.16,0.854,1.736,1.286c1.456,0.923,3.095,1.584,4.749,2.019
			c3.963,1.042,8.33,0.408,11.867-1.665c5.451-3.194,7.202-9.965,9.302-13.84c1.834-3.383,4.099-5.559,8.318-7.364
			c2.582-1.104,6.618-1.335,9.075-0.76c0-7.714,0-15.428,0-23.143c-10.195,4.171-17.403,11.966-20.319,22.726
			c-3.044,11.23-0.398,22.859,2.591,33.784c4.92-4.92,9.841-9.841,14.761-14.761c-4.094-1.424-6.806-4.56-8.841-8.836
			c-2.784-5.852-11.164-7.378-16.418-4.305c-5.988,3.502-7.099,10.544-4.305,16.418c4.618,9.707,13.175,16.385,23.184,19.866
			c8.829,3.071,17.052-6.39,14.761-14.761c-1.75-6.398-4.035-13.355-2.938-20.079c-0.271,1.663,0.828-2.506,0.752-2.297
			c-0.442,1.217,1.233-2.41,1.124-2.239c0.739-1.157,1.69-2.233,2.028-2.371c4.982-2.038,8.81-5.833,8.81-11.571
			c0-5.123-3.705-10.376-8.81-11.571c-10.561-2.473-21.936-0.838-31.094,5.157c-4.636,3.035-8.376,6.698-11.596,11.18
			c-1.5,2.088-2.582,4.304-3.572,6.669c-0.508,1.212-1.168,2.493-1.473,3.784c0.091-0.222,0.183-0.443,0.274-0.665
			c-1.512,2.387-0.45,1.601,3.186-2.359c2.127,0,4.253,0,6.38,0c0.76,0.159-1.612-1.213-1.998-1.45
			c-1.367-0.841-2.964-1.439-4.494-1.845c-3.988-1.057-8.3-0.507-11.872,1.575c-9.064,5.283-7.467,16.622-1.339,23.292
			c9.326,10.151,25.587-2.867,18.847-14.542c-0.846-1.465-1.115-4.841-1.852-7.069c-1.308-3.953-3.503-7.436-6.659-10.137
			c-7.763-6.643-19.084-5.125-24.859,3.272c-8.256,12.003-8.235,29.956-4.744,43.511c7.311-3.082,14.622-6.164,21.933-9.247
			c-6.075-13.281-15.186-25.206-26.377-34.589c-4.963-4.161-12.105-4.865-16.971,0C243.739,408.817,243.026,417.328,248.015,421.512
			L248.015,421.512z"/>
	</g>
</g>
<g>
	<g>
		<path d="M249.699,417.667c6.543,18.897,22.686,31.243,42.462,33.253c-1.063-7.857-2.127-15.714-3.19-23.571
			c-4.075,1.163-7.998,2.873-11.478,5.295c-9.641,6.712-6.328,21.912,6.057,22.362c15.196,0.551,26.012-8.691,37.922-16.532
			c5.523-3.636,11.827-5.827,15.338-11.848c3.769-6.463,4.634-15.088,6.383-22.282c3.647-15.004-19.49-21.405-23.143-6.38
			c-0.704,2.897-1.408,5.794-2.112,8.691c-0.522,2.149-2.022,5.399-1.857,7.582c0.161,2.132-0.162-0.541,0.884-0.846
			c-0.77,0.225-1.636,0.844-2.346,1.228c-2.317,1.252-4.538,2.621-6.711,4.111c-7.329,5.023-14.915,12.619-24.357,12.276
			c2.019,7.454,4.038,14.908,6.057,22.362c1.904-1.326,3.571-2.256,5.745-2.876c5.699-1.626,9.477-7.305,8.596-13.166
			c-0.943-6.269-5.673-9.784-11.786-10.405c-3.159-0.321-8.296-2.444-11.128-4.599c-3.959-3.014-6.796-7.003-8.192-11.034
			c-2.12-6.122-8.223-10.178-14.761-8.381C252.131,404.541,247.569,411.515,249.699,417.667L249.699,417.667z"/>
	</g>
</g>
<g>
	<g>
		<path d="M276.556,448.118c-0.557,15.2-0.275,30.392,0.846,45.56c0.624,8.442,9.928,15.777,18.057,10.362
			c4.226-2.815,7.593-6.532,8.451-11.716c1.057-6.386-1.672-12.918-8.381-14.761c-5.742-1.578-13.697,1.951-14.761,8.381
			c0.859-0.876,1.719-1.751,2.578-2.627c6.019,3.454,12.038,6.908,18.057,10.362c-1.12-15.169-1.402-30.36-0.846-45.56
			C301.122,432.671,277.121,432.694,276.556,448.118L276.556,448.118z"/>
	</g>
</g>
<g>
	<g>
		<path d="M315.487,441.883c12.573,18.726,21.089,39.273,25.485,61.397c1.264,6.36,8.839,10.009,14.761,8.381
			c6.631-1.822,9.649-8.383,8.381-14.761c-4.751-23.914-14.314-46.888-27.905-67.13c-3.608-5.374-10.577-7.722-16.418-4.305
			C314.458,428.585,311.858,436.478,315.487,441.883L315.487,441.883z"/>
	</g>
</g>
<g>
	<g>
		<path d="M96.624,521.383c-7.337-4.264-11.665-10.751-13.405-18.967c-2.535-11.972-19.992-10.865-23.143,0
			c-0.813,2.805-1.627,5.609-2.44,8.414c7.311-0.956,14.622-1.911,21.933-2.867c-0.975-1.626-1.95-3.251-2.926-4.877
			c-5.698-9.497-18.321-6.453-21.933,2.867c-1.173,3.026-2.25,6.074-3.24,9.164c7.714,2.127,15.428,4.253,23.143,6.38
			c2.007-11.979,4.177-24.214,3.548-36.408c-0.67-12.982-4.871-24.291-9.838-36.13c-4.145-9.878-7.54-20.06-8.286-30.815
			c-0.834-12.024,3.302-24.543-2.159-35.789c-2.391,5.876-4.781,11.752-7.172,17.628c5.483-0.806,11.068-1.11,16.606-1.144
			c2.84-0.017,5.679,0.051,8.515,0.212c0.447,0.025,3.651,0.225,3.56,0.222c-0.156-0.005,0.759,0.479,0.809-0.01
			c-0.656-0.927-1.312-1.854-1.968-2.781c0.783,1.046,0.892,1.56,0.326,1.541c-0.104,0.787,0.031,1.863,0.054,2.734
			c0.081,3.026,0.032,6.051-0.126,9.074c-0.276,5.279-0.905,10.495-1.826,15.698c-4.053,22.886-11.8,44.953-15.006,68.011
			c7.857,1.063,15.714,2.127,23.571,3.19c0.457-17.03,0.626-34.112-2.705-50.905c-1.656-8.35-4.637-16.069-7.973-23.87
			c-1.862-4.356-6.037-12.081-4.13-16.502c-6.908,0-13.816,0-20.723,0c5.673,10.547,9.174,22.143,10.045,34.104c8,0,16,0,24,0
			c-0.495-3.703-0.541-6.944,1.191-10.311c2.964-5.761,1.498-13.024-4.305-16.418c-5.372-3.142-13.442-1.479-16.418,4.305
			c-3.586,6.969-5.518,14.568-4.468,22.424c0.858,6.422,4.901,12,12,12c6.129,0,12.474-5.501,12-12
			c-1.19-16.325-5.56-31.787-13.322-46.217c-3.931-7.308-17.117-8.358-20.723,0c-4.042,9.369-4.191,18.545-0.951,28.212
			c2.695,8.041,6.739,15.488,8.997,23.697c4.6,16.723,3.946,34.308,3.485,51.482c-0.159,5.909,4.682,11.105,10.405,11.786
			c5.277,0.628,12.335-2.617,13.166-8.596C88.73,471.613,99.131,444.663,102,416.15c1.429-14.204,2.848-33.813-13.781-39.371
			c-6.164-2.06-13.517-1.943-19.959-1.945c-8.042-0.002-15.985,0.839-23.933,2.007c-8.269,1.215-10.152,11.49-7.172,17.628
			c0.703,1.448-1.052,9.176-1.191,11.59c-0.303,5.264-0.167,10.55,0.403,15.792c1.257,11.573,4.156,22.366,8.643,33.091
			c3.795,9.071,8.288,18.367,9.034,28.311c0.805,10.725-0.808,21.321-2.575,31.864c-1.07,6.385,1.68,12.92,8.381,14.761
			c6.481,1.781,12.778-2.187,14.761-8.381c0.99-3.091,2.067-6.139,3.24-9.164c-7.311,0.956-14.622,1.911-21.933,2.867
			c0.975,1.626,1.95,3.251,2.926,4.877c5.339,8.899,19.049,7.079,21.933-2.867c0.813-2.805,1.627-5.609,2.44-8.414
			c-7.714,0-15.428,0-23.143,0c2.97,14.025,12.09,26.137,24.435,33.31C97.891,549.881,109.987,529.148,96.624,521.383
			L96.624,521.383z"/>
	</g>
</g>
<g>
	<g>
		<path d="M821,210c12.554,0,24.581-11.039,24-24c-0.582-13.003-10.545-24-24-24c-12.554,0-24.581,11.039-24,24
			C797.582,199.003,807.545,210,821,210L821,210z"/>
	</g>
</g>
<g>
	<g>
		<path d="M99.85,505.549c6.858-34.038,10.837-68.719,11.565-103.437c0.263-12.559-11.227-24.572-24-24
			c-13.228,0.592-23.718,10.543-24,24c-0.335,15.971-1.323,31.917-3.046,47.799c-0.422,3.889-0.905,7.769-1.392,11.65
			c-0.236,1.805-0.168,1.293,0.203-1.535c-0.135,0.968-0.273,1.936-0.415,2.904c-0.281,1.935-0.573,3.869-0.875,5.801
			c-1.26,8.052-2.715,16.069-4.325,24.057c-2.472,12.271,3.52,26.507,16.763,29.523C82.272,525.032,97.199,518.71,99.85,505.549
			L99.85,505.549z"/>
	</g>
</g>
<g>
	<g>
		<path d="M72.387,436.14c18.689,1.921,37.334-3.367,54.968-8.978c16.561-5.27,33.316-9.459,50.212-13.495
			c33.814-8.077,66.508-18.299,94.192-40.028c13.636-10.702,25.474-24.766,32.319-40.779c2.643-6.184,4.287-11.712,2.419-18.493
			c-1.533-5.567-5.837-11.6-11.029-14.343c-10.307-5.445-27.568-3.716-32.837,8.61c-2.608,6.102-6.441,11.113-9.611,16.83
			c2.978-5.37,0.918-1.21-0.447,0.365c-0.978,1.129-1.984,2.233-3.015,3.314c-2.419,2.536-4.974,4.939-7.639,7.215
			c-0.683,0.583-4.644,3.719-1.679,1.457c2.926-2.233-1.555,1.101-2.455,1.729c-2.711,1.891-5.495,3.675-8.339,5.359
			c-2.852,1.689-5.763,3.277-8.723,4.769c-1.365,0.688-2.741,1.355-4.125,2.003c-0.922,0.431-1.855,0.837-2.777,1.267
			c-2.906,1.354,0.448-0.264,1.536-0.621c-7.313,2.401-14.403,5.379-21.803,7.58c-8.008,2.382-16.111,4.431-24.229,6.397
			c-15.953,3.862-31.974,7.439-47.653,12.334c-8.568,2.675-17.073,5.586-25.796,7.73c-2.382,0.585-4.775,1.114-7.187,1.56
			c-0.194,0.036-2.697,0.398-2.703,0.469c0.028-0.314,5.083-0.469,0.958-0.165c-4.892,0.36-9.675,0.419-14.559-0.083
			c-12.529-1.288-24.539,11.958-24,24C49.018,426.243,58.965,434.76,72.387,436.14L72.387,436.14z"/>
	</g>
</g>
<g>
	<g>
		<path d="M273.459,339.506c17.49,7.413,35.832,11.639,54.937,9.362c6.584-0.784,12.098-2.157,16.971-7.029
			c4.163-4.163,7.297-10.992,7.029-16.971c-0.525-11.73-10.648-25.591-24-24c-3.482,0.415-6.97,0.671-10.479,0.669
			c-1.46-0.001-2.918-0.049-4.376-0.13c-0.759-0.042-6.83-0.528-2.91-0.154c3.826,0.365-1.184-0.242-1.996-0.403
			c-1.717-0.34-3.426-0.734-5.118-1.182c-1.693-0.447-3.371-0.952-5.031-1.51c-1.352-0.454-6.466-2.501-0.801-0.099
			c-6.204-2.629-11.693-4.292-18.493-2.419c-5.567,1.533-11.6,5.837-14.343,11.029C259.418,316.947,261.117,334.275,273.459,339.506
			L273.459,339.506z"/>
	</g>
</g>
<g>
	<g>
		<path d="M115.43,447.084c3.691,0.04,7.382,0.079,11.073,0.119c-8-8-16-16-24-24c-0.786,14.161,7.877,29.564,20.775,35.719
			c5.919,2.824,11.971,4.216,18.493,2.419c5.567-1.533,11.6-5.837,14.343-11.029c5.654-10.702,3.486-27.065-8.61-32.837
			c-0.671-0.288-1.315-0.628-1.932-1.019c3.322,2.76,4.093,3.327,2.313,1.702c-1.614-1.789-1.045-1.023,1.705,2.299
			c-0.395-0.616-0.744-1.256-1.05-1.921c0.806,1.911,1.613,3.822,2.419,5.733c-0.574-1.376-0.972-2.71-1.236-4.177
			c0.286,2.127,0.572,4.253,0.857,6.38c-0.116-1.123-0.141-2.142-0.078-3.269c0.725-13.06-11.585-23.867-24-24
			c-3.691-0.04-7.382-0.079-11.073-0.119c-12.557-0.135-24.576,11.135-24,24C92.017,436.203,101.973,446.94,115.43,447.084
			L115.43,447.084z"/>
	</g>
</g>
<g>
	<g>
		<path d="M158.764,470.578c1.894-7.363,3.788-14.727,5.681-22.09c0.756-2.939,1.865-5.893,2.501-8.844
			c-1.557,3.421-1.905,4.32-1.043,2.697c0.919-1.598,0.276-0.866-1.929,2.196c1.34-1.298,1.18-1.22-0.48,0.236
			c-2.391,2.309-5.421,3.387-9.09,3.236c0.513-0.013,1.025-0.027,1.538-0.04c2.636,0.185,2.089,0.06-1.64-0.377
			c-0.014,0.056,13.799,1.809,9.583,1.348c5.947,0.65,12.809-0.051,17.968-3.378c8.335-5.373,12.373-14.087,17.08-22.436
			c6.167-10.938,2.97-26.718-8.61-32.837c-11.355-5.999-26.251-3.071-32.837,8.61c-1.377,2.443-2.755,4.886-4.132,7.329
			c-0.581,1.03-1.439,2.146-1.836,3.257c-1.028,2.877,3.928-3.704,1.251-1.618c3.53-2.057,7.06-4.115,10.59-6.172
			c3.971-0.228,4.942-0.394,2.912-0.499c-1.857-0.157-1.06-0.037,2.392,0.359c-0.048,0.114-6.99-0.987-6.387-0.906
			c-5.424-0.729-10.31-0.93-15.759,0.41c-9.499,2.336-17.124,8.777-22.06,17.053c-3.52,5.902-5.078,12.876-6.77,19.455
			c-1.736,6.75-3.472,13.5-5.208,20.249c-3.123,12.142,3.978,26.611,16.763,29.523C141.746,490.188,155.418,483.586,158.764,470.578
			L158.764,470.578z"/>
	</g>
</g>
<g>
	<g>
		<path d="M182.221,423.754c19.936,6.139,39.715-2.898,51.361-19.244c7.308-10.258,2.145-27.154-8.61-32.837
			c-12.368-6.534-25.037-2.338-32.837,8.61c2.514-3.053,2.937-3.663,1.269-1.83c-1.84,1.662-1.228,1.238,1.835-1.272
			c-0.724,0.488-1.475,0.931-2.252,1.329c3.766-1.461,4.464-1.775,2.095-0.944c-6.482,1.338,4.228,0.082-0.066,0.111
			c-2.576-0.131-1.746,0.027,2.49,0.475c-0.857-0.17-1.699-0.398-2.524-0.683c-11.999-3.695-26.704,4.386-29.523,16.763
			C162.497,407.234,169.373,419.798,182.221,423.754L182.221,423.754z"/>
	</g>
</g>
<g>
	<g>
		<path d="M224.356,411.099c23.829,1.064,47.297-5.105,70.179-10.977c10.468-2.686,20.954-5.207,31.632-6.909
			c5.561-0.886-3.832,0.327-0.559,0.094c1.387-0.099,2.771-0.292,4.158-0.403c2.767-0.221,5.542-0.355,8.318-0.377
			c2.498-0.021,4.997,0.049,7.489,0.215c0.722,0.048,3.616-0.198,4.163,0.368c-1.016-0.14-2.033-0.279-3.049-0.419
			c1.115,0.168,2.225,0.359,3.333,0.571c12.31,2.235,26.469-3.354,29.523-16.763c2.674-11.742-3.554-27.124-16.763-29.523
			c-25.801-4.685-50.834-0.746-76.006,5.586c-10.841,2.727-21.626,5.705-32.578,7.966c-2.787,0.575-5.582,1.105-8.389,1.57
			c-1.347,0.223-2.829,0.651-4.202,0.647c5.998,0.019,2.116-0.309,0.489-0.146c-5.902,0.594-11.813,0.764-17.739,0.499
			c-12.559-0.561-24.563,11.44-24,24C200.96,400.582,210.902,410.499,224.356,411.099L224.356,411.099z"/>
	</g>
</g>
<g>
	<g>
		<path d="M307.424,380.098c9.156,0.009,18.313,0.019,27.469,0.028c3.494,0.004,8.336,0.901,11.709,0.184
			c-1.258-0.165-2.516-0.33-3.774-0.496c0.846,0.155,1.68,0.361,2.501,0.617c-3.747-1.782-4.555-2.083-2.425-0.902
			c-3.915-2.364-6.461-5.634-7.638-9.81c4.16,11.813,16.59,20.948,29.523,16.763c11.666-3.775,21.228-16.845,16.763-29.523
			c-5.946-16.883-20.402-24.244-37.549-24.806c-12.166-0.399-24.405-0.042-36.578-0.054c-12.554-0.013-24.58,11.048-24,24
			C284.007,369.112,293.969,380.084,307.424,380.098L307.424,380.098z"/>
	</g>
</g>
<g>
	<g>
		<path d="M353.336,388.794c0.667,0.354,1.296,0.748,1.906,1.193c-1.619-1.251-3.238-2.502-4.857-3.753
			c0.999,0.772,1.875,1.643,2.653,2.637c-1.251-1.619-2.502-3.238-3.753-4.857c0.525,0.71,0.978,1.444,1.375,2.233
			c1.508,2.797,3.569,5.041,6.181,6.734c2.318,2.121,5.039,3.553,8.162,4.296c3.19,1,6.38,1.143,9.57,0.429
			c3.194-0.145,6.168-1.094,8.923-2.848c1.619-1.251,3.238-2.502,4.857-3.753c2.974-2.995,5.032-6.525,6.172-10.59
			c0.286-2.127,0.572-4.253,0.857-6.38c-0.013-4.332-1.106-8.37-3.277-12.113c-1.557-3.091-3.824-5.906-6.232-8.367
			c-1.191-1.217-2.648-2.21-3.978-3.237c-1.439-1.112-2.745-2.226-4.335-3.07c-2.755-1.754-5.729-2.703-8.923-2.848
			c-3.19-0.714-6.38-0.572-9.57,0.429c-3.123,0.743-5.844,2.174-8.162,4.296c-2.613,1.692-4.673,3.937-6.181,6.734
			c-0.806,1.911-1.613,3.822-2.419,5.733c-1.143,4.253-1.143,8.507,0,12.76c0.806,1.911,1.613,3.822,2.419,5.733
			C346.86,383.79,349.73,386.66,353.336,388.794L353.336,388.794z"/>
	</g>
</g>
<g>
	<g>
		<path d="M363.691,371.323c1.593,0.149,3.186,0.298,4.778,0.468c0.534,0.059,1.067,0.117,1.601,0.176
			c2.132,0.261,2.136,0.254,0.011-0.019c-2.122-0.294-2.121-0.28,0.002,0.041c0.528,0.092,1.057,0.185,1.585,0.277
			c1.572,0.292,3.141,0.621,4.692,1.013c1.543,0.39,3.032,0.881,4.553,1.343c4.157,1.262-3.145-1.785-0.673-0.329
			c1.104,0.65,2.271,1.29,3.41,1.884c1.697,1.169,1.739,1.15,0.127-0.056c-1.566-1.26-1.572-1.222-0.017,0.114
			c4.992,5.257,9.866,10.521,15.888,14.658c7.596,5.218,16.686,7.568,25.824,7.773c12.56,0.282,24.572-11.24,24-24
			c-0.593-13.244-10.543-23.698-24-24c-2.164-0.109-2.19-0.052-0.08,0.171c2.095,0.339,2.084,0.275-0.031-0.191
			c-0.52-0.172-1.04-0.343-1.561-0.515c2.928,1.305,3.609,1.515,2.043,0.629c-2.591-1.443,3.562,3.48,0.525,0.455
			c-1.103-1.099-2.204-2.173-3.272-3.309c-4.974-5.289-10.194-10.334-16.56-13.975c-13.137-7.515-28.066-9.221-42.847-10.607
			c-12.537-1.175-24.543,11.878-24,24C340.319,361.33,350.262,370.064,363.691,371.323L363.691,371.323z"/>
	</g>
</g>
<g>
	<g>
		<path d="M399.33,371.196c44.898-0.192,92.641-1.995,131.374-27.596c10.458-6.913,15.901-21.527,8.61-32.837
			c-6.726-10.433-21.635-16.014-32.837-8.61c-3.814,2.521-7.74,4.848-11.819,6.917c-1.017,0.516-2.043,1.017-3.075,1.504
			c-0.246,0.116-5.338,2.34-1.828,0.876c3.15-1.313-0.491,0.167-1.103,0.403c-1.067,0.411-2.14,0.809-3.217,1.194
			c-8.911,3.182-18.129,5.467-27.449,7.075c-1.129,0.195-2.261,0.368-3.391,0.555c-2.88,0.474-1.167,0.44,0.646-0.048
			c-2.392,0.644-5.205,0.619-7.669,0.857c-5.123,0.495-10.26,0.839-15.4,1.084c-10.939,0.522-21.894,0.579-32.844,0.626
			c-12.552,0.054-24.582,11-24,24C375.91,360.153,385.876,371.254,399.33,371.196L399.33,371.196z"/>
	</g>
</g>
<g>
	<g>
		<path d="M497.673,327.144c0.275,1.167,0.507,2.34,0.768,3.509c0.672,3.002,0.27,0.578-0.045-1.052
			c0.509,2.63,0.589,5.393,0.89,8.056c0.704,6.233,1.291,12.701,3.055,18.757c3.748,12.871,11.159,23.68,22.485,30.972
			c10.576,6.81,26.961,2.512,32.837-8.61c6.297-11.918,2.677-25.569-8.61-32.837c-2.125-1.406-1.673-1.032,1.355,1.121
			c-0.709-0.663-1.373-1.369-1.991-2.118c2.063,2.769,2.608,3.393,1.634,1.872c-0.399-0.624-0.766-1.266-1.101-1.927
			c-2.326-4.006,1.658,5.17-0.101-0.514c-0.517-1.671-0.929-3.365-1.268-5.08c-0.225-1.178-0.423-2.361-0.593-3.549
			c0.133,0.936,0.266,1.872,0.398,2.809c-0.723-2.076-0.521-4.973-0.777-7.165c-0.666-5.699-1.333-11.414-2.65-17.005
			c-2.881-12.229-17.509-20.651-29.523-16.763C501.682,301.749,494.586,314.041,497.673,327.144L497.673,327.144z"/>
	</g>
</g>
<g>
	<g>
		<path d="M515.521,361.773c-2.531,16.938-0.557,34.574,10.215,48.593c5.344,6.955,11.431,11.887,20.723,11.887
			c9.018,0,15.733-4.799,20.723-11.887c7.482-10.626,3.743-23.915-3.925-32.991c-8.134-9.626-25.675-9.005-33.941,0
			c-9.402,10.242-8.676,23.673,0,33.941c0.236,0.28,0.472,0.559,0.709,0.839c-2.057-3.53-4.115-7.06-6.172-10.59
			c0.09,0.358,0.181,0.717,0.271,1.075c0-4.253,0-8.507,0-12.76c0.537-1.247,1.074-2.493,1.612-3.74c13.816,0,27.631,0,41.447,0
			c-1.315-1.712-2.401-3.501-3.556-5.316c-2.046-3.214,0.189,1.321,0.375,1.391c-0.582-0.216-1.126-3.276-1.272-3.794
			c-0.288-1.025-0.439-2.099-0.739-3.116c-0.837-2.839,0.104,4.576,0.237,1.621c0.087-1.929,0.626-9.407-0.422-2.392
			c0.991-6.631,1.105-12.47-2.419-18.493c-2.913-4.978-8.622-9.726-14.343-11.029C533.632,342.411,517.505,348.494,515.521,361.773
			L515.521,361.773z"/>
	</g>
</g>
<g>
	<g>
		<path d="M490.18,338.976c-12.353,3.587-21.295,12.452-26.22,24.121c-3.548,8.408-3.931,17.548-7.408,25.922
			c-2.217,5.338-0.354,13.754,2.419,18.493c2.913,4.978,8.622,9.726,14.343,11.029c6.144,1.399,13.04,1.096,18.493-2.419
			c5.609-3.616,8.492-8.232,11.029-14.343c2.431-5.853,2.958-12.074,4.546-18.158c0.287-1.101,0.979-2.475,1.107-3.567
			c-0.191,1.633-1.921,4.874-0.198,1.235c1.161-2.452-3.674,3.72-0.687,1.047c-0.902,0.694-1.804,1.388-2.706,2.083
			c-3.751,1.308-4.404,1.589-1.959,0.842c12.047-3.498,20.793-17.069,16.763-29.523C515.744,343.504,503.095,335.226,490.18,338.976
			L490.18,338.976z"/>
	</g>
</g>
<g>
	<g>
		<path d="M424.395,378.469c0.349,1.663,0.699,3.327,1.048,4.99c0.743,3.123,2.174,5.844,4.296,8.162
			c1.692,2.613,3.937,4.673,6.734,6.181c2.755,1.754,5.729,2.703,8.923,2.848c3.19,0.714,6.38,0.572,9.57-0.429
			c1.911-0.806,3.822-1.613,5.733-2.419c3.606-2.134,6.476-5.004,8.61-8.61c0.806-1.911,1.613-3.822,2.419-5.733
			c1.143-4.253,1.143-8.507,0-12.76c-0.349-1.663-0.699-3.327-1.048-4.99c-0.743-3.123-2.174-5.844-4.296-8.162
			c-1.692-2.613-3.937-4.673-6.734-6.181c-2.755-1.754-5.729-2.703-8.923-2.848c-3.19-0.714-6.38-0.572-9.57,0.429
			c-1.911,0.806-3.822,1.613-5.733,2.419c-3.606,2.134-6.476,5.004-8.61,8.61c-0.806,1.911-1.613,3.822-2.419,5.733
			C423.252,369.962,423.252,374.216,424.395,378.469L424.395,378.469z"/>
	</g>
</g>
<g>
	<g>
		<path d="M442.428,403.112c0.333,0,0.667,0,1,0c3.304,0.125,6.387-0.564,9.247-2.067c2.975-0.968,5.55-2.622,7.724-4.962
			c2.34-2.174,3.995-4.748,4.962-7.724c1.503-2.86,2.192-5.942,2.067-9.247c-0.286-2.127-0.572-4.253-0.857-6.38
			c-1.14-4.066-3.198-7.596-6.172-10.59c-1.619-1.251-3.238-2.502-4.857-3.753c-3.743-2.171-7.781-3.263-12.113-3.277
			c-0.333,0-0.667,0-1,0c-3.304-0.125-6.387,0.564-9.247,2.067c-2.975,0.968-5.55,2.622-7.724,4.962
			c-2.34,2.174-3.995,4.748-4.962,7.724c-1.503,2.86-2.192,5.942-2.067,9.247c0.286,2.127,0.572,4.253,0.857,6.38
			c1.14,4.066,3.198,7.596,6.172,10.59c1.619,1.251,3.238,2.502,4.857,3.753C434.058,402.007,438.096,403.099,442.428,403.112
			L442.428,403.112z"/>
	</g>
</g>
</svg>
